{
.formatVersion = 3;
classes = (
{
code = "a_ahom alt_ba_ahom alt_ga_ahom alt_ta_ahom ba_ahom bha_ahom cha_ahom dha_ahom ga_ahom ga_ahom.alt gha_ahom ha_ahom ja_ahom jha_ahom jha_ahom.alt ka_ahom kha_ahom khra_ahom la_ahom ma_ahom pa_ahom pha_ahom phra_ahom ra_ahom sa_ahom t_ja_ahom ta_ahom tha_ahom";
name = class1;
},
{
code = "bha_ahom da_ahom dha_ahom gha_ahom jha_ahom jha_ahom.alt phra_ahom";
name = class4;
},
{
code = "alt_ba_ahom alt_ta_ahom ba_ahom ga_ahom ga_ahom.alt ha_ahom ma_ahom na_ahom nga_ahom pa_ahom";
name = class5;
},
{
code = "alt_ba_ahom alt_ta_ahom ba_ahom ga_ahom ha_ahom ma_ahom na_ahom nga_ahom pa_ahom";
name = class6;
},
{
code = "a_ahom alt_ba_ahom alt_ga_ahom alt_ta_ahom ba_ahom bha_ahom cha_ahom da_ahom dha_ahom dottedCircle ga_ahom ga_ahom.alt gha_ahom ha_ahom ja_ahom jha_ahom jha_ahom.alt ka_ahom kha_ahom khra_ahom la_ahom ma_ahom na_ahom nga_ahom nya_ahom pa_ahom pha_ahom phra_ahom ra_ahom sa_ahom t_ja_ahom ta_ahom tha_ahom";
name = class7;
},
{
code = "a_ahom alt_ba_ahom alt_ga_ahom alt_ta_ahom ba_ahom bha_ahom cha_ahom da_ahom dha_ahom ga_ahom gha_ahom ha_ahom ja_ahom jha_ahom ka_ahom kha_ahom la_ahom ma_ahom na_ahom nga_ahom nya_ahom pa_ahom pha_ahom ra_ahom sa_ahom t_ja_ahom ta_ahom tha_ahom";
name = class18;
}
);
familyName = "Noto Serif Ahom";
customParameters = (
{
name = glyphOrder;
value = (
.notdef,
NULL,
CR,
space,
nbspace,
dottedCircle,
ka_ahom,
kha_ahom,
nga_ahom,
na_ahom,
ta_ahom,
alt_ta_ahom,
pa_ahom,
pha_ahom,
ba_ahom,
ma_ahom,
ja_ahom,
cha_ahom,
tha_ahom,
ra_ahom,
la_ahom,
sa_ahom,
nya_ahom,
ha_ahom,
a_ahom,
da_ahom,
dha_ahom,
ga_ahom,
ga_ahom.alt,
alt_ga_ahom,
gha_ahom,
bha_ahom,
jha_ahom,
jha_ahom.alt,
alt_ba_ahom,
medialLa_ahom,
medialLa_ahom.sm,
medialRa_ahom,
medialRa_ahom.sm,
medialRa_ahom.desc,
medialLigaRa_ahom,
aSign_ahom,
aaSign_ahom,
iSign_ahom,
iiSign_ahom,
uSign_ahom,
uuSign_ahom,
eSign_ahom,
awSign_ahom,
oSign_ahom,
aiSign_ahom,
amSign_ahom,
virama_ahom,
zero_ahom,
one_ahom,
two_ahom,
three_ahom,

glyphs = (
{
glyphname = .notdef;
layers = (
{
background = {
shapes = (
{
closed = 1;
nodes = (
(506,0,l),
(506,714,l),
(95,714,l),
(95,0,l)
);
},
{
closed = 1;
nodes = (
(146,663,l),
(455,663,l),
(455,51,l),
(146,51,l)
);
}
);
};
layerId = "8FE481F4-9FBE-4592-9CC9-A6C081639EC4";
shapes = (
{
closed = 1;
nodes = (
(506,0,l),
(506,714,l),
(95,714,l),
(95,0,l)
);
},
{
closed = 1;
nodes = (
(146,663,l),
(455,663,l),
(455,51,l),
(146,51,l)
);
}
);
width = 600;
}
);
},
{
glyphname = dottedCircle;
layers = (
{
anchors = (
{
name = Anchor10;
position = "{0, 0}";
},
{
name = Anchor11;
position = "{594, 0}";
},
{
name = Anchor12;
position = "{620, 0}";
},
{
name = Anchor13;
position = "{80, 0}";
},
{
name = Anchor15;
position = "{594, 630}";
},
{
name = Anchor17;
position = "{594, 0}";
},
{
name = Anchor27;
position = "{594, 490}";
},
{
name = Anchor8;
position = "{912, 0}";
},
{
name = Anchor9;
position = "{680, 0}";
}
);
background = {
shapes = (
{
closed = 1;
nodes = (
(469,423,o),
(481,435,o),
(481,449,cs),
(481,463,o),
(469,475,o),
(455,475,cs),
(441,475,o),
(429,463,o),
(429,449,cs),
(429,435,o),
(441,423,o),
(455,423,cs)
);
},
{
closed = 1;
nodes = (
(153,107,o),
(165,119,o),
(165,133,cs),
(165,147,o),
(153,159,o),
(139,159,cs),
(125,159,o),
(113,147,o),
(113,133,cs),
(113,119,o),
(125,107,o),
(139,107,cs)
);
},
{
closed = 1;
nodes = (
(227,60,o),
(239,72,o),
(239,86,cs),
(239,100,o),
(227,112,o),
(213,112,cs),
(199,112,o),
(187,100,o),
(187,86,cs),
(187,72,o),
(199,60,o),
(213,60,cs)
);
},
{
closed = 1;
nodes = (
(106,181,o),
(118,193,o),
(118,207,cs),
(118,221,o),
(106,233,o),
(92,233,cs),
(78,233,o),
(66,221,o),
(66,207,cs),
(66,193,o),
(78,181,o),
(92,181,cs)
);
},
{
closed = 1;
nodes = (
(311,42,o),
(323,54,o),
(323,68,cs),
(323,82,o),
(311,94,o),
(297,94,cs),
(283,94,o),
(271,82,o),
(271,68,cs),
(271,54,o),
(283,42,o),
(297,42,cs)
);
},
{
closed = 1;
nodes = (
(88,265,o),
(100,277,o),
(100,291,cs),
(100,305,o),
(88,317,o),
(74,317,cs),
(60,317,o),
(48,305,o),
(48,291,cs),
(48,277,o),
(60,265,o),
(74,265,cs)
);
},
{
closed = 1;
nodes = (
(395,60,o),
(407,72,o),
(407,86,cs),
(407,100,o),
(395,112,o),
(381,112,cs),
(367,112,o),
(355,100,o),
(355,86,cs),
(355,72,o),
(367,60,o),
(381,60,cs)
);
},
{
closed = 1;
nodes = (
(106,349,o),
(118,361,o),
(118,375,cs),
(118,389,o),
(106,401,o),
(92,401,cs),
(78,401,o),
(66,389,o),
(66,375,cs),
(66,361,o),
(78,349,o),
(92,349,cs)
);
},
{
closed = 1;
nodes = (
(153,423,o),
(165,435,o),
(165,449,cs),
(165,463,o),
(153,475,o),
(139,475,cs),
(125,475,o),
(113,463,o),
(113,449,cs),
(113,435,o),
(125,423,o),
(139,423,cs)
);
},
{
closed = 1;
nodes = (
(469,107,o),
(481,119,o),
(481,133,cs),
(481,147,o),
(469,159,o),
(455,159,cs),
(441,159,o),
(429,147,o),
(429,133,cs),
(429,119,o),
(441,107,o),
(455,107,cs)
);
},
{
closed = 1;
nodes = (
(227,470,o),
(239,482,o),
(239,496,cs),
(239,510,o),
(227,522,o),
(213,522,cs),
(199,522,o),
(187,510,o),
(187,496,cs),
(187,482,o),
(199,470,o),
(213,470,cs)
);
},
{
closed = 1;
nodes = (
(516,181,o),
(528,193,o),
(528,207,cs),
(528,221,o),
(516,233,o),
(502,233,cs),
(488,233,o),
(476,221,o),
(476,207,cs),
(476,193,o),
(488,181,o),
(502,181,cs)
);
},
{
closed = 1;
nodes = (
(311,488,o),
(323,500,o),
(323,514,cs),
(323,528,o),
(311,540,o),
(297,540,cs),
(283,540,o),
(271,528,o),
(271,514,cs),
(271,500,o),
(283,488,o),
(297,488,cs)
);
},
{
closed = 1;
nodes = (
(534,265,o),
(546,277,o),
(546,291,cs),
(546,305,o),
(534,317,o),
(520,317,cs),
(506,317,o),
(494,305,o),
(494,291,cs),
(494,277,o),
(506,265,o),
(520,265,cs)
);
},
{
closed = 1;
nodes = (
(395,470,o),
(407,482,o),
(407,496,cs),
(407,510,o),
(395,522,o),
(381,522,cs),
(367,522,o),
(355,510,o),
(355,496,cs),
(355,482,o),
(367,470,o),
(381,470,cs)
);
},
{
closed = 1;
nodes = (
(516,349,o),
(528,361,o),
(528,375,cs),
(528,389,o),
(516,401,o),
(502,401,cs),
(488,401,o),
(476,389,o),
(476,375,cs),
(476,361,o),
(488,349,o),
(502,349,cs)
);
}
);
};
layerId = "8FE481F4-9FBE-4592-9CC9-A6C081639EC4";
shapes = (
{
closed = 1;
nodes = (
(469,423,o),
(481,435,o),
(481,449,cs),
(481,463,o),
(469,475,o),
(455,475,cs),
(441,475,o),
(429,463,o),
(429,449,cs),
(429,435,o),
(441,423,o),
(455,423,cs)
);
},
{
closed = 1;
nodes = (
(153,107,o),
(165,119,o),
(165,133,cs),
(165,147,o),
(153,159,o),
(139,159,cs),
(125,159,o),
(113,147,o),
(113,133,cs),
(113,119,o),
(125,107,o),
(139,107,cs)
);
},
{
closed = 1;
nodes = (
(227,60,o),
(239,72,o),
(239,86,cs),
(239,100,o),
(227,112,o),
(213,112,cs),
(199,112,o),
(187,100,o),
(187,86,cs),
(187,72,o),
(199,60,o),
(213,60,cs)
);
},
{
closed = 1;
nodes = (
(106,181,o),
(118,193,o),
(118,207,cs),
(118,221,o),
(106,233,o),
(92,233,cs),
(78,233,o),
(66,221,o),
(66,207,cs),
(66,193,o),
(78,181,o),
(92,181,cs)
);
},
{
closed = 1;
nodes = (
(311,42,o),
(323,54,o),
(323,68,cs),
(323,82,o),
(311,94,o),
(297,94,cs),
(283,94,o),
(271,82,o),
(271,68,cs),
(271,54,o),
(283,42,o),
(297,42,cs)
);
},
{
closed = 1;
nodes = (
(88,265,o),
(100,277,o),
(100,291,cs),
(100,305,o),
(88,317,o),
(74,317,cs),
(60,317,o),
(48,305,o),
(48,291,cs),
(48,277,o),
(60,265,o),
(74,265,cs)
);
},
{
closed = 1;
nodes = (
(395,60,o),
(407,72,o),
(407,86,cs),
(407,100,o),
(395,112,o),
(381,112,cs),
(367,112,o),
(355,100,o),
(355,86,cs),
(355,72,o),
(367,60,o),
(381,60,cs)
);
},
{
closed = 1;
nodes = (
(106,349,o),
(118,361,o),
(118,375,cs),
(118,389,o),
(106,401,o),
(92,401,cs),
(78,401,o),
(66,389,o),
(66,375,cs),
(66,361,o),
(78,349,o),
(92,349,cs)
);
},
{
closed = 1;
nodes = (
(153,423,o),
(165,435,o),
(165,449,cs),
(165,463,o),
(153,475,o),
(139,475,cs),
(125,475,o),
(113,463,o),
(113,449,cs),
(113,435,o),
(125,423,o),
(139,423,cs)
);
},
{
closed = 1;
nodes = (
(469,107,o),
(481,119,o),
(481,133,cs),
(481,147,o),
(469,159,o),
(455,159,cs),
(441,159,o),
(429,147,o),
(429,133,cs),
(429,119,o),
(441,107,o),
(455,107,cs)
);
},
{
closed = 1;
nodes = (
(227,470,o),
(239,482,o),
(239,496,cs),
(239,510,o),
(227,522,o),
(213,522,cs),
(199,522,o),
(187,510,o),
(187,496,cs),
(187,482,o),
(199,470,o),
(213,470,cs)
);
},
{
closed = 1;
nodes = (
(516,181,o),
(528,193,o),
(528,207,cs),
(528,221,o),
(516,233,o),
(502,233,cs),
(488,233,o),
(476,221,o),
(476,207,cs),
(476,193,o),
(488,181,o),
(502,181,cs)
);
},
{
closed = 1;
nodes = (
(311,488,o),
(323,500,o),
(323,514,cs),
(323,528,o),
(311,540,o),
(297,540,cs),
(283,540,o),
(271,528,o),
(271,514,cs),
(271,500,o),
(283,488,o),
(297,488,cs)
);
},
{
closed = 1;
nodes = (
(534,265,o),
(546,277,o),
(546,291,cs),
(546,305,o),
(534,317,o),
(520,317,cs),
(506,317,o),
(494,305,o),
(494,291,cs),
(494,277,o),
(506,265,o),
(520,265,cs)
);
},
{
closed = 1;
nodes = (
(395,470,o),
(407,482,o),
(407,496,cs),
(407,510,o),
(395,522,o),
(381,522,cs),
(367,522,o),
(355,510,o),
(355,496,cs),
(355,482,o),
(367,470,o),
(381,470,cs)
);
},
{
closed = 1;
nodes = (
(516,349,o),
(528,361,o),
(528,375,cs),
(528,389,o),
(516,401,o),
(502,401,cs),
(488,401,o),
(476,389,o),
(476,375,cs),
(476,361,o),
(488,349,o),
(502,349,cs)
);
}
);
width = 594;
}
);
unicode = 9676;
},
{
glyphname = ka_ahom;
layers = (
{
anchors = (
{
name = Anchor10;
position = "{0, 0}";
},
{
name = Anchor11;
position = "{960, 0}";
},
{
name = Anchor12;
position = "{0, 0}";
},
{
name = Anchor13;
position = "{450, 0}";
},
{
name = Anchor15;
position = "{650, 630}";
},
{
name = Anchor17;
position = "{830, 0}";
},
{
name = Anchor27;
position = "{944, 490}";
},
{
name = Anchor8;
position = "{960, 0}";
},
{
name = Anchor9;
position = "{0, 0}";
}
);
background = {
shapes = (
{
closed = 1;
nodes = (
(204,-10,o),
(224,-2,o),
(224,15,cs),
(224,354,ls),
(224,356,o),
(224,359,o),
(223,362,c),
(272,425,o),
(337,478,o),
(373,478,cs),
(417,478,o),
(434,447,o),
(434,353,cs),
(434,15,ls),
(434,-2,o),
(456,-10,o),
(479,-10,cs),
(501,-10,o),
(524,-2,o),
(524,15,cs),
(524,362,l),
(573,425,o),
(637,478,o),
(673,478,cs),
(717,478,o),
(734,447,o),
(734,353,cs),
(734,15,ls),
(734,-2,o),
(757,-10,o),
(781,-10,cs),
(802,-10,o),
(824,-2,o),
(824,15,cs),
(824,377,ls),
(824,529,o),
(772,560,o),
(710,560,cs),
(647,560,o),
(570,497,o),
(520,442,c),
(506,538,o),
(462,560,o),
(410,560,cs),
(341,560,o),
(256,485,o),
(206,427,c),
(187,491,o),
(126,560,o),
(66,560,cs),
(45,560,o),
(20,523,o),
(20,499,cs),
(20,487,o),
(26,481,o),
(36,477,cs),
(93,454,o),
(134,410,o),
(134,336,cs),
(134,15,ls),
(134,-2,o),
(159,-10,o),
(180,-10,cs)
);
}
);
};
layerId = "8FE481F4-9FBE-4592-9CC9-A6C081639EC4";
shapes = (
{
closed = 1;
nodes = (
(204,-10,o),
(224,-2,o),
(224,15,cs),
(224,354,ls),
(224,356,o),
(224,359,o),
(223,362,c),
(272,425,o),
(337,478,o),
(373,478,cs),
(417,478,o),
(434,447,o),
(434,353,cs),
(434,15,ls),
(434,-2,o),
(456,-10,o),
(479,-10,cs),
(501,-10,o),
(524,-2,o),
(524,15,cs),
(524,362,l),
(573,425,o),
(637,478,o),
(673,478,cs),
(717,478,o),
(734,447,o),
(734,353,cs),
(734,15,ls),
(734,-2,o),
(757,-10,o),
(781,-10,cs),
(802,-10,o),
(824,-2,o),
(824,15,cs),
(824,377,ls),
(824,529,o),
(772,560,o),
(710,560,cs),
(647,560,o),
(570,497,o),
(520,442,c),
(506,538,o),
(462,560,o),
(410,560,cs),
(341,560,o),
(256,485,o),
(206,427,c),
(187,491,o),
(126,560,o),
(66,560,cs),
(45,560,o),
(20,523,o),
(20,499,cs),
(20,487,o),
(26,481,o),
(36,477,cs),
(93,454,o),
(134,410,o),
(134,336,cs),
(134,15,ls),
(134,-2,o),
(159,-10,o),
(180,-10,cs)
);
}
);
width = 944;
}
);
unicode = 71424;
},
{
glyphname = kha_ahom;
layers = (
{
anchors = (
{
name = Anchor10;
position = "{0, 0}";
},
{
name = Anchor11;
position = "{920, 0}";
},
{
name = Anchor12;
position = "{0, 0}";
},
{
name = Anchor13;
position = "{400, 0}";
},
{
name = Anchor15;
position = "{600, 630}";
},
{
name = Anchor17;
position = "{720, 0}";
},
{
name = Anchor27;
position = "{861, 490}";
},
{
name = Anchor8;
position = "{1000, 0}";
},
{
name = Anchor9;
position = "{0, 0}";
}
);
background = {
shapes = (
{
closed = 1;
nodes = (
(204,-10,o),
(224,-2,o),
(224,15,cs),
(224,170,l),
(355,371,o),
(473,426,o),
(547,426,cs),
(626,426,o),
(687,390,o),
(687,277,cs),
(687,154,o),
(618,98,o),
(561,98,cs),
(524,98,o),
(518,124,o),
(513,150,cs),
(507,179,o),
(500,208,o),
(454,208,cs),
(424,208,o),
(395,181,o),
(395,143,cs),
(395,72,o),
(479,34,o),
(552,34,cs),
(670,34,o),
(781,113,o),
(781,280,cs),
(781,428,o),
(688,508,o),
(561,508,cs),
(433,508,o),
(316,395,o),
(224,267,c),
(224,395,ls),
(224,507,o),
(151,560,o),
(73,560,cs),
(38,560,o),
(20,523,o),
(20,499,cs),
(20,487,o),
(25,477,o),
(36,477,cs),
(53,477,ls),
(94,477,o),
(134,456,o),
(134,383,cs),
(134,15,ls),
(134,-4,o),
(159,-10,o),
(180,-10,cs)
);
}
);
};
layerId = "8FE481F4-9FBE-4592-9CC9-A6C081639EC4";
shapes = (
{
closed = 1;
nodes = (
(204,-10,o),
(224,-2,o),
(224,15,cs),
(224,170,l),
(355,371,o),
(473,426,o),
(547,426,cs),
(626,426,o),
(687,390,o),
(687,277,cs),
(687,154,o),
(618,98,o),
(561,98,cs),
(524,98,o),
(518,124,o),
(513,150,cs),
(507,179,o),
(500,208,o),
(454,208,cs),
(424,208,o),
(395,181,o),
(395,143,cs),
(395,72,o),
(479,34,o),
(552,34,cs),
(670,34,o),
(781,113,o),
(781,280,cs),
(781,428,o),
(688,508,o),
(561,508,cs),
(433,508,o),
(316,395,o),
(224,267,c),
(224,395,ls),
(224,507,o),
(151,560,o),
(73,560,cs),
(38,560,o),
(20,523,o),
(20,499,cs),
(20,487,o),
(25,477,o),
(36,477,cs),
(53,477,ls),
(94,477,o),
(134,456,o),
(134,383,cs),
(134,15,ls),
(134,-4,o),
(159,-10,o),
(180,-10,cs)
);
}
);
width = 861;
}
);
unicode = 71425;
},
{
glyphname = nga_ahom;
layers = (
{
anchors = (
{
name = Anchor10;
position = "{0, 0}";
},
{
name = Anchor11;
position = "{0, 0}";
},
{
name = Anchor12;
position = "{680, 0}";
},
{
name = Anchor13;
position = "{140, 0}";
},
{
name = Anchor15;
position = "{320, 630}";
},
{
name = Anchor17;
position = "{460, 0}";
},
{
name = Anchor27;
position = "{610, 490}";
},
{
name = Anchor8;
position = "{0, 0}";
},
{
name = Anchor9;
position = "{720, 0}";
}
);
background = {
shapes = (
{
closed = 1;
nodes = (
(379,-14,o),
(510,114,o),
(510,220,cs),
(510,260,o),
(491,314,o),
(423,314,cs),
(379,314,o),
(356,275,o),
(356,251,cs),
(356,217,o),
(376,206,o),
(394,196,cs),
(409,188,o),
(423,179,o),
(423,164,cs),
(423,114,o),
(355,38,o),
(276,38,cs),
(260,38,o),
(224,49,o),
(224,96,cs),
(224,328,l),
(365,361,o),
(461,474,o),
(461,592,cs),
(461,620,o),
(452,635,o),
(434,635,cs),
(422,635,o),
(413,628,o),
(411,610,cs),
(402,519,o),
(318,439,o),
(224,407,c),
(223,459,o),
(178,560,o),
(73,560,cs),
(38,560,o),
(20,523,o),
(20,499,cs),
(20,487,o),
(25,477,o),
(36,477,cs),
(53,477,ls),
(128,477,o),
(134,397,o),
(134,383,cs),
(134,105,ls),
(134,18,o),
(184,-14,o),
(249,-14,cs)
);
}
);
};
layerId = "8FE481F4-9FBE-4592-9CC9-A6C081639EC4";
shapes = (
{
closed = 1;
nodes = (
(379,-14,o),
(510,114,o),
(510,220,cs),
(510,260,o),
(491,314,o),
(423,314,cs),
(379,314,o),
(356,275,o),
(356,251,cs),
(356,217,o),
(376,206,o),
(394,196,cs),
(409,188,o),
(423,179,o),
(423,164,cs),
(423,114,o),
(355,38,o),
(276,38,cs),
(260,38,o),
(224,49,o),
(224,96,cs),
(224,328,l),
(365,361,o),
(461,474,o),
(461,592,cs),
(461,620,o),
(452,635,o),
(434,635,cs),
(422,635,o),
(413,628,o),
(411,610,cs),
(402,519,o),
(318,439,o),
(224,407,c),
(223,459,o),
(178,560,o),
(73,560,cs),
(38,560,o),
(20,523,o),
(20,499,cs),
(20,487,o),
(25,477,o),
(36,477,cs),
(53,477,ls),
(128,477,o),
(134,397,o),
(134,383,cs),
(134,105,ls),
(134,18,o),
(184,-14,o),
(249,-14,cs)
);
}
);
width = 610;
}
);
unicode = 71426;
},
{
glyphname = na_ahom;
layers = (
{
anchors = (
{
name = Anchor10;
position = "{0, 0}";
},
{
name = Anchor11;
position = "{0, 0}";
},
{
name = Anchor12;
position = "{680, 0}";
},
{
name = Anchor13;
position = "{200, 0}";
},
{
name = Anchor15;
position = "{425, 630}";
},
{
name = Anchor17;
position = "{530, 0}";
},
{
name = Anchor27;
position = "{648, 490}";
},
{
name = Anchor8;
position = "{0, 0}";
},
{
name = Anchor9;
position = "{680, 0}";
}
);
background = {
shapes = (
{
closed = 1;
nodes = (
(510,-24,o),
(528,-17,o),
(528,1,cs),
(528,213,ls),
(528,229,o),
(518,248,o),
(498,248,cs),
(481,248,o),
(451,231,o),
(424,214,cs),
(210,81,l),
(210,362,l),
(267,413,o),
(357,471,o),
(392,471,cs),
(425,471,o),
(430,454,o),
(435,436,cs),
(440,418,o),
(453,399,o),
(487,399,cs),
(521,399,o),
(548,421,o),
(548,476,cs),
(548,526,o),
(518,560,o),
(456,560,cs),
(394,560,o),
(286,488,o),
(210,425,c),
(210,525,ls),
(210,542,o),
(190,550,o),
(166,550,cs),
(145,550,o),
(120,544,o),
(120,525,cs),
(120,19,ls),
(120,1,o),
(126,-10,o),
(148,-10,cs),
(174,-10,o),
(232,26,o),
(261,44,cs),
(438,156,l),
(438,1,ls),
(438,-16,o),
(455,-24,o),
(481,-24,cs)
);
}
);
};
layerId = "8FE481F4-9FBE-4592-9CC9-A6C081639EC4";
shapes = (
{
closed = 1;
nodes = (
(510,-24,o),
(528,-17,o),
(528,1,cs),
(528,213,ls),
(528,229,o),
(518,248,o),
(498,248,cs),
(481,248,o),
(451,231,o),
(424,214,cs),
(210,81,l),
(210,362,l),
(267,413,o),
(357,471,o),
(392,471,cs),
(425,471,o),
(430,454,o),
(435,436,cs),
(440,418,o),
(453,399,o),
(487,399,cs),
(521,399,o),
(548,421,o),
(548,476,cs),
(548,526,o),
(518,560,o),
(456,560,cs),
(394,560,o),
(286,488,o),
(210,425,c),
(210,525,ls),
(210,542,o),
(190,550,o),
(166,550,cs),
(145,550,o),
(120,544,o),
(120,525,cs),
(120,19,ls),
(120,1,o),
(126,-10,o),
(148,-10,cs),
(174,-10,o),
(232,26,o),
(261,44,cs),
(438,156,l),
(438,1,ls),
(438,-16,o),
(455,-24,o),
(481,-24,cs)
);
}
);
width = 648;
}
);
unicode = 71427;
},
{
glyphname = ta_ahom;
layers = (
{
anchors = (
{
name = Anchor10;
position = "{0, 0}";
},
{
name = Anchor11;
position = "{960, 0}";
},
{
name = Anchor12;
position = "{0, 0}";
},
{
name = Anchor13;
position = "{400, 0}";
},
{
name = Anchor15;
position = "{600, 630}";
},
{
name = Anchor17;
position = "{860, 0}";
},
{
name = Anchor27;
position = "{882, 490}";
},
{
name = Anchor8;
position = "{1050, 0}";
},
{
name = Anchor9;
position = "{0, 0}";
}
);
background = {
shapes = (
{
closed = 1;
nodes = (
(336,-14,o),
(404,97,o),
(433,208,c),
(429,218,l),
(443,66,ls),
(448,11,o),
(471,10,o),
(491,10,cs),
(503,10,o),
(522,20,o),
(532,46,cs),
(617,265,ls),
(649,346,o),
(661,374,o),
(671,374,cs),
(681,374,o),
(686,353,o),
(695,310,cs),
(756,33,ls),
(764,-3,o),
(785,-10,o),
(809,-10,cs),
(845,-10,o),
(852,8,o),
(852,22,cs),
(852,30,o),
(849,45,o),
(846,59,cs),
(766,438,ls),
(743,548,o),
(730,560,o),
(707,560,cs),
(686,560,o),
(662,531,o),
(633,458,cs),
(508,148,l),
(518,146,l),
(499,313,ls),
(483,453,o),
(457,560,o),
(334,560,cs),
(210,560,o),
(60,364,o),
(60,169,cs),
(60,33,o),
(133,-14,o),
(213,-14,cs)
);
},
{
closed = 1;
nodes = (
(177,68,o),
(154,124,o),
(154,196,cs),
(154,382,o),
(229,483,o),
(319,483,cs),
(367,483,o),
(400,450,o),
(409,357,cs),
(413,317,l),
(376,106,o),
(275,68,o),
(234,68,cs)
);
}
);
};
layerId = "8FE481F4-9FBE-4592-9CC9-A6C081639EC4";
shapes = (
{
closed = 1;
nodes = (
(336,-14,o),
(404,97,o),
(433,208,c),
(429,218,l),
(443,66,ls),
(448,11,o),
(471,10,o),
(491,10,cs),
(503,10,o),
(522,20,o),
(532,46,cs),
(617,265,ls),
(649,346,o),
(661,374,o),
(671,374,cs),
(681,374,o),
(686,353,o),
(695,310,cs),
(756,33,ls),
(764,-3,o),
(785,-10,o),
(809,-10,cs),
(845,-10,o),
(852,8,o),
(852,22,cs),
(852,30,o),
(849,45,o),
(846,59,cs),
(766,438,ls),
(743,548,o),
(730,560,o),
(707,560,cs),
(686,560,o),
(662,531,o),
(633,458,cs),
(508,148,l),
(518,146,l),
(499,313,ls),
(483,453,o),
(457,560,o),
(334,560,cs),
(210,560,o),
(60,364,o),
(60,169,cs),
(60,33,o),
(133,-14,o),
(213,-14,cs)
);
},
{
closed = 1;
nodes = (
(177,68,o),
(154,124,o),
(154,196,cs),
(154,382,o),
(229,483,o),
(319,483,cs),
(367,483,o),
(400,450,o),
(409,357,cs),
(413,317,l),
(376,106,o),
(275,68,o),
(234,68,cs)
);
}
);
width = 882;
}
);
unicode = 71428;
},
{
glyphname = alt_ta_ahom;
layers = (
{
anchors = (
{
name = Anchor10;
position = "{920, 0}";
},
{
name = Anchor11;
position = "{0, 0}";
},
{
name = Anchor12;
position = "{680, 0}";
},
{
name = Anchor13;
position = "{200, 0}";
},
{
name = Anchor15;
position = "{380, 630}";
},
{
name = Anchor17;
position = "{540, 0}";
},
{
name = Anchor27;
position = "{667, 490}";
},
{
name = Anchor8;
position = "{0, 0}";
},
{
name = Anchor9;
position = "{720, 0}";
}
);
background = {
shapes = (
{
closed = 1;
nodes = (
(336,-14,o),
(404,97,o),
(433,208,c),
(429,218,l),
(443,66,ls),
(448,11,o),
(471,10,o),
(491,10,cs),
(506,10,o),
(534,23,o),
(534,67,cs),
(534,80,o),
(532,93,o),
(529,107,cs),
(526,123,o),
(524,140,o),
(524,158,cs),
(524,243,o),
(559,329,o),
(625,381,cs),
(634,388,o),
(637,398,o),
(637,405,cs),
(637,417,o),
(630,427,o),
(619,427,cs),
(609,427,o),
(595,421,o),
(578,409,cs),
(546,387,o),
(519,359,o),
(497,327,c),
(476,460,o),
(452,560,o),
(334,560,cs),
(210,560,o),
(60,364,o),
(60,169,cs),
(60,33,o),
(133,-14,o),
(213,-14,cs)
);
},
{
closed = 1;
nodes = (
(177,68,o),
(154,124,o),
(154,196,cs),
(154,382,o),
(229,483,o),
(319,483,cs),
(367,483,o),
(400,450,o),
(409,357,cs),
(413,317,l),
(376,106,o),
(275,68,o),
(234,68,cs)
);
}
);
};
layerId = "8FE481F4-9FBE-4592-9CC9-A6C081639EC4";
shapes = (
{
closed = 1;
nodes = (
(336,-14,o),
(404,97,o),
(433,208,c),
(429,218,l),
(443,66,ls),
(448,11,o),
(471,10,o),
(491,10,cs),
(506,10,o),
(534,23,o),
(534,67,cs),
(534,80,o),
(532,93,o),
(529,107,cs),
(526,123,o),
(524,140,o),
(524,158,cs),
(524,243,o),
(559,329,o),
(625,381,cs),
(634,388,o),
(637,398,o),
(637,405,cs),
(637,417,o),
(630,427,o),
(619,427,cs),
(609,427,o),
(595,421,o),
(578,409,cs),
(546,387,o),
(519,359,o),
(497,327,c),
(476,460,o),
(452,560,o),
(334,560,cs),
(210,560,o),
(60,364,o),
(60,169,cs),
(60,33,o),
(133,-14,o),
(213,-14,cs)
);
},
{
closed = 1;
nodes = (
(177,68,o),
(154,124,o),
(154,196,cs),
(154,382,o),
(229,483,o),
(319,483,cs),
(367,483,o),
(400,450,o),
(409,357,cs),
(413,317,l),
(376,106,o),
(275,68,o),
(234,68,cs)
);
}
);
width = 667;
}
);
unicode = 71429;
},
{
glyphname = pa_ahom;
layers = (
{
anchors = (
{
name = Anchor10;
position = "{0, 0}";
},
{
name = Anchor11;
position = "{0, 0}";
},
{
name = Anchor12;
position = "{720, 0}";
},
{
name = Anchor13;
position = "{200, 0}";
},
{
name = Anchor15;
position = "{425, 630}";
},
{
name = Anchor17;
position = "{540, 0}";
},
{
name = Anchor27;
position = "{663, 490}";
},
{
name = Anchor8;
position = "{0, 0}";
},
{
name = Anchor9;
position = "{720, 0}";
}
);
background = {
shapes = (
{
closed = 1;
nodes = (
(433,-14,o),
(583,143,o),
(583,345,cs),
(583,502,o),
(504,560,o),
(432,560,cs),
(396,560,o),
(372,536,o),
(372,504,cs),
(372,460,o),
(400,445,o),
(431,431,cs),
(466,415,o),
(504,395,o),
(504,324,cs),
(504,176,o),
(425,48,o),
(317,48,cs),
(239,48,o),
(224,90,o),
(224,155,cs),
(224,405,ls),
(224,457,o),
(180,560,o),
(73,560,cs),
(38,560,o),
(20,523,o),
(20,499,cs),
(20,487,o),
(25,477,o),
(36,477,cs),
(53,477,ls),
(128,477,o),
(134,397,o),
(134,383,cs),
(134,195,ls),
(134,91,o),
(156,-14,o),
(298,-14,cs)
);
}
);
};
layerId = "8FE481F4-9FBE-4592-9CC9-A6C081639EC4";
shapes = (
{
closed = 1;
nodes = (
(433,-14,o),
(583,143,o),
(583,345,cs),
(583,502,o),
(504,560,o),
(432,560,cs),
(396,560,o),
(372,536,o),
(372,504,cs),
(372,460,o),
(400,445,o),
(431,431,cs),
(466,415,o),
(504,395,o),
(504,324,cs),
(504,176,o),
(425,48,o),
(317,48,cs),
(239,48,o),
(224,90,o),
(224,155,cs),
(224,405,ls),
(224,457,o),
(180,560,o),
(73,560,cs),
(38,560,o),
(20,523,o),
(20,499,cs),
(20,487,o),
(25,477,o),
(36,477,cs),
(53,477,ls),
(128,477,o),
(134,397,o),
(134,383,cs),
(134,195,ls),
(134,91,o),
(156,-14,o),
(298,-14,cs)
);
}
);
width = 663;
}
);
unicode = 71430;
},
{
glyphname = pha_ahom;
layers = (
{
anchors = (
{
name = Anchor10;
position = "{0, 0}";
},
{
name = Anchor11;
position = "{1020, 0}";
},
{
name = Anchor12;
position = "{0, 0}";
},
{
name = Anchor13;
position = "{540, 0}";
},
{
name = Anchor15;
position = "{760, 630}";
},
{
name = Anchor17;
position = "{920, 0}";
},
{
name = Anchor27;
position = "{1039, 490}";
},
{
name = Anchor8;
position = "{1050, 0}";
},
{
name = Anchor9;
position = "{0, 0}";
}
);
background = {
shapes = (
{
closed = 1;
nodes = (
(377,-14,o),
(454,35,o),
(508,112,c),
(530,39,o),
(583,-12,o),
(671,-12,cs),
(821,-12,o),
(959,161,o),
(959,344,cs),
(959,463,o),
(905,560,o),
(784,560,cs),
(706,560,o),
(629,512,o),
(575,439,c),
(558,510,o),
(522,560,o),
(486,560,cs),
(462,560,o),
(448,545,o),
(448,527,cs),
(448,513,o),
(456,500,o),
(468,486,cs),
(482,469,o),
(504,429,o),
(504,324,cs),
(504,176,o),
(425,48,o),
(317,48,cs),
(239,48,o),
(224,90,o),
(224,155,cs),
(224,405,ls),
(224,457,o),
(180,560,o),
(73,560,cs),
(38,560,o),
(20,523,o),
(20,499,cs),
(20,487,o),
(25,477,o),
(36,477,cs),
(53,477,ls),
(128,477,o),
(134,397,o),
(134,383,cs),
(134,195,ls),
(134,91,o),
(156,-14,o),
(298,-14,cs)
);
},
{
closed = 1;
nodes = (
(630,65,o),
(590,122,o),
(590,224,cs),
(590,378,o),
(633,480,o),
(748,480,cs),
(825,480,o),
(865,426,o),
(865,324,cs),
(865,186,o),
(827,65,o),
(700,65,cs)
);
}
);
};
layerId = "8FE481F4-9FBE-4592-9CC9-A6C081639EC4";
shapes = (
{
closed = 1;
nodes = (
(377,-14,o),
(454,35,o),
(508,112,c),
(530,39,o),
(583,-12,o),
(671,-12,cs),
(821,-12,o),
(959,161,o),
(959,344,cs),
(959,463,o),
(905,560,o),
(784,560,cs),
(706,560,o),
(629,512,o),
(575,439,c),
(558,510,o),
(522,560,o),
(486,560,cs),
(462,560,o),
(448,545,o),
(448,527,cs),
(448,513,o),
(456,500,o),
(468,486,cs),
(482,469,o),
(504,429,o),
(504,324,cs),
(504,176,o),
(425,48,o),
(317,48,cs),
(239,48,o),
(224,90,o),
(224,155,cs),
(224,405,ls),
(224,457,o),
(180,560,o),
(73,560,cs),
(38,560,o),
(20,523,o),
(20,499,cs),
(20,487,o),
(25,477,o),
(36,477,cs),
(53,477,ls),
(128,477,o),
(134,397,o),
(134,383,cs),
(134,195,ls),
(134,91,o),
(156,-14,o),
(298,-14,cs)
);
},
{
closed = 1;
nodes = (
(630,65,o),
(590,122,o),
(590,224,cs),
(590,378,o),
(633,480,o),
(748,480,cs),
(825,480,o),
(865,426,o),
(865,324,cs),
(865,186,o),
(827,65,o),
(700,65,cs)
);
}
);
width = 1039;
}
);
unicode = 71431;
},
{
glyphname = ba_ahom;
layers = (
{
anchors = (
{
name = Anchor10;
position = "{0, 0}";
},
{
name = Anchor11;
position = "{0, 0}";
},
{
name = Anchor12;
position = "{720, 0}";
},
{
name = Anchor13;
position = "{280, 0}";
},
{
name = Anchor15;
position = "{445, 630}";
},
{
name = Anchor17;
position = "{580, 0}";
},
{
name = Anchor27;
position = "{703, 490}";
},
{
name = Anchor8;
position = "{0, 0}";
},
{
name = Anchor9;
position = "{720, 0}";
}
);
background = {
shapes = (
{
closed = 1;
nodes = (
(443,-14,o),
(623,152,o),
(623,364,cs),
(623,487,o),
(550,560,o),
(444,560,cs),
(339,560,o),
(252,470,o),
(211,372,c),
(217,374,l),
(211,445,o),
(144,560,o),
(66,560,cs),
(43,560,o),
(20,527,o),
(20,499,cs),
(20,487,o),
(26,481,o),
(36,477,cs),
(81,458,o),
(134,410,o),
(134,336,cs),
(134,195,ls),
(134,91,o),
(161,-14,o),
(300,-14,cs)
);
},
{
closed = 1;
nodes = (
(245,48,o),
(224,82,o),
(224,175,cs),
(224,268,l),
(265,462,o),
(385,480,o),
(416,480,cs),
(497,480,o),
(529,405,o),
(529,352,cs),
(529,181,o),
(435,48,o),
(309,48,cs)
);
}
);
};
layerId = "8FE481F4-9FBE-4592-9CC9-A6C081639EC4";
shapes = (
{
closed = 1;
nodes = (
(443,-14,o),
(623,152,o),
(623,364,cs),
(623,487,o),
(550,560,o),
(444,560,cs),
(339,560,o),
(252,470,o),
(211,372,c),
(217,374,l),
(211,445,o),
(144,560,o),
(66,560,cs),
(43,560,o),
(20,527,o),
(20,499,cs),
(20,487,o),
(26,481,o),
(36,477,cs),
(81,458,o),
(134,410,o),
(134,336,cs),
(134,195,ls),
(134,91,o),
(161,-14,o),
(300,-14,cs)
);
},
{
closed = 1;
nodes = (
(245,48,o),
(224,82,o),
(224,175,cs),
(224,268,l),
(265,462,o),
(385,480,o),
(416,480,cs),
(497,480,o),
(529,405,o),
(529,352,cs),
(529,181,o),
(435,48,o),
(309,48,cs)
);
}
);
width = 703;
}
);
unicode = 71432;
},
{
glyphname = ma_ahom;
layers = (
{
anchors = (
{
name = Anchor10;
position = "{0, 0}";
},
{
name = Anchor11;
position = "{0, 0}";
},
{
name = Anchor12;
position = "{720, 0}";
},
{
name = Anchor13;
position = "{200, 0}";
},
{
name = Anchor15;
position = "{375, 630}";
},
{
name = Anchor17;
position = "{560, 0}";
},
{
name = Anchor27;
position = "{663, 490}";
},
{
name = Anchor8;
position = "{0, 0}";
},
{
name = Anchor9;
position = "{720, 0}";
}
);
background = {
shapes = (
{
closed = 1;
nodes = (
(433,-14,o),
(583,143,o),
(583,345,cs),
(583,502,o),
(504,560,o),
(432,560,cs),
(396,560,o),
(372,536,o),
(372,505,cs),
(372,460,o),
(401,446,o),
(432,431,cs),
(467,414,o),
(504,395,o),
(504,324,cs),
(504,316,l),
(224,316,l),
(224,405,ls),
(224,457,o),
(180,560,o),
(73,560,cs),
(38,560,o),
(20,523,o),
(20,499,cs),
(20,487,o),
(25,477,o),
(36,477,cs),
(53,477,ls),
(128,477,o),
(134,397,o),
(134,383,cs),
(134,195,ls),
(134,91,o),
(156,-14,o),
(298,-14,cs)
);
},
{
closed = 1;
nodes = (
(239,48,o),
(224,90,o),
(224,155,cs),
(224,264,l),
(499,264,l),
(481,143,o),
(410,48,o),
(317,48,cs)
);
}
);
};
layerId = "8FE481F4-9FBE-4592-9CC9-A6C081639EC4";
shapes = (
{
closed = 1;
nodes = (
(433,-14,o),
(583,143,o),
(583,345,cs),
(583,502,o),
(504,560,o),
(432,560,cs),
(396,560,o),
(372,536,o),
(372,505,cs),
(372,460,o),
(401,446,o),
(432,431,cs),
(467,414,o),
(504,395,o),
(504,324,cs),
(504,316,l),
(224,316,l),
(224,405,ls),
(224,457,o),
(180,560,o),
(73,560,cs),
(38,560,o),
(20,523,o),
(20,499,cs),
(20,487,o),
(25,477,o),
(36,477,cs),
(53,477,ls),
(128,477,o),
(134,397,o),
(134,383,cs),
(134,195,ls),
(134,91,o),
(156,-14,o),
(298,-14,cs)
);
},
{
closed = 1;
nodes = (
(239,48,o),
(224,90,o),
(224,155,cs),
(224,264,l),
(499,264,l),
(481,143,o),
(410,48,o),
(317,48,cs)
);
}
);
width = 663;
}
);
unicode = 71433;
},
{
glyphname = ja_ahom;
layers = (
{
anchors = (
{
name = Anchor10;
position = "{0, 0}";
},
{
name = Anchor11;
position = "{960, 0}";
},
{
name = Anchor12;
position = "{0, 0}";
},
{
name = Anchor13;
position = "{480, 0}";
},
{
name = Anchor15;
position = "{650, 630}";
},
{
name = Anchor17;
position = "{830, 0}";
},
{
name = Anchor27;
position = "{953, 490}";
},
{
name = Anchor8;
position = "{1020, 0}";
},
{
name = Anchor9;
position = "{0, 0}";
}
);
background = {
shapes = (
{
closed = 1;
nodes = (
(370,-14,o),
(435,13,o),
(468,72,c),
(455,71,l),
(472,22,o),
(519,-14,o),
(588,-14,cs),
(723,-14,o),
(873,143,o),
(873,345,cs),
(873,502,o),
(796,560,o),
(724,560,cs),
(688,560,o),
(662,534,o),
(662,499,cs),
(662,460,o),
(690,444,o),
(721,430,cs),
(756,414,o),
(794,396,o),
(794,324,cs),
(794,176,o),
(715,48,o),
(607,48,cs),
(552,48,o),
(524,82,o),
(524,175,cs),
(524,535,ls),
(524,552,o),
(501,560,o),
(479,560,cs),
(456,560,o),
(434,552,o),
(434,535,cs),
(434,247,ls),
(434,119,o),
(400,49,o),
(321,49,cs),
(264,49,o),
(224,62,o),
(224,219,cs),
(224,405,ls),
(224,457,o),
(180,560,o),
(73,560,cs),
(38,560,o),
(20,523,o),
(20,499,cs),
(20,487,o),
(25,477,o),
(36,477,cs),
(53,477,ls),
(102,477,o),
(134,441,o),
(134,383,cs),
(134,219,ls),
(134,32,o),
(219,-14,o),
(315,-14,cs)
);
}
);
};
layerId = "8FE481F4-9FBE-4592-9CC9-A6C081639EC4";
shapes = (
{
closed = 1;
nodes = (
(370,-14,o),
(435,13,o),
(468,72,c),
(455,71,l),
(472,22,o),
(519,-14,o),
(588,-14,cs),
(723,-14,o),
(873,143,o),
(873,345,cs),
(873,502,o),
(796,560,o),
(724,560,cs),
(688,560,o),
(662,534,o),
(662,499,cs),
(662,460,o),
(690,444,o),
(721,430,cs),
(756,414,o),
(794,396,o),
(794,324,cs),
(794,176,o),
(715,48,o),
(607,48,cs),
(552,48,o),
(524,82,o),
(524,175,cs),
(524,535,ls),
(524,552,o),
(501,560,o),
(479,560,cs),
(456,560,o),
(434,552,o),
(434,535,cs),
(434,247,ls),
(434,119,o),
(400,49,o),
(321,49,cs),
(264,49,o),
(224,62,o),
(224,219,cs),
(224,405,ls),
(224,457,o),
(180,560,o),
(73,560,cs),
(38,560,o),
(20,523,o),
(20,499,cs),
(20,487,o),
(25,477,o),
(36,477,cs),
(53,477,ls),
(102,477,o),
(134,441,o),
(134,383,cs),
(134,219,ls),
(134,32,o),
(219,-14,o),
(315,-14,cs)
);
}
);
width = 953;
}
);
unicode = 71434;
},
{
glyphname = cha_ahom;
layers = (
{
anchors = (
{
name = Anchor10;
position = "{0, 0}";
},
{
name = Anchor11;
position = "{960, 0}";
},
{
name = Anchor12;
position = "{0, 0}";
},
{
name = Anchor13;
position = "{530, 0}";
},
{
name = Anchor15;
position = "{740, 630}";
},
{
name = Anchor17;
position = "{900, 0}";
},
{
name = Anchor27;
position = "{1033, 490}";
},
{
name = Anchor8;
position = "{1020, 0}";
},
{
name = Anchor9;
position = "{0, 0}";
}
);
background = {
shapes = (
{
closed = 1;
nodes = (
(793,-14,o),
(953,152,o),
(953,364,cs),
(953,487,o),
(880,560,o),
(774,560,cs),
(683,560,o),
(614,493,o),
(574,410,c),
(574,438,ls),
(574,542,o),
(546,560,o),
(518,560,cs),
(485,560,o),
(443,508,o),
(376,390,cs),
(224,122,l),
(224,339,ls),
(224,482,o),
(116,560,o),
(66,560,cs),
(45,560,o),
(20,523,o),
(20,499,cs),
(20,487,o),
(26,481,o),
(36,477,cs),
(87,455,o),
(134,405,o),
(134,326,cs),
(134,73,ls),
(134,4,o),
(159,-10,o),
(180,-10,cs),
(201,-10,o),
(216,-2,o),
(229,20,cs),
(421,350,ls),
(451,401,o),
(467,428,o),
(477,428,cs),
(484,428,o),
(484,418,o),
(484,374,cs),
(484,195,ls),
(484,91,o),
(511,-14,o),
(650,-14,cs)
);
},
{
closed = 1;
nodes = (
(595,48,o),
(574,82,o),
(574,175,cs),
(574,253,l),
(612,461,o),
(714,480,o),
(746,480,cs),
(839,480,o),
(859,405,o),
(859,352,cs),
(859,181,o),
(785,48,o),
(659,48,cs)
);
}
);
};
layerId = "8FE481F4-9FBE-4592-9CC9-A6C081639EC4";
shapes = (
{
closed = 1;
nodes = (
(793,-14,o),
(953,152,o),
(953,364,cs),
(953,487,o),
(880,560,o),
(774,560,cs),
(683,560,o),
(614,493,o),
(574,410,c),
(574,438,ls),
(574,542,o),
(546,560,o),
(518,560,cs),
(485,560,o),
(443,508,o),
(376,390,cs),
(224,122,l),
(224,339,ls),
(224,482,o),
(116,560,o),
(66,560,cs),
(45,560,o),
(20,523,o),
(20,499,cs),
(20,487,o),
(26,481,o),
(36,477,cs),
(87,455,o),
(134,405,o),
(134,326,cs),
(134,73,ls),
(134,4,o),
(159,-10,o),
(180,-10,cs),
(201,-10,o),
(216,-2,o),
(229,20,cs),
(421,350,ls),
(451,401,o),
(467,428,o),
(477,428,cs),
(484,428,o),
(484,418,o),
(484,374,cs),
(484,195,ls),
(484,91,o),
(511,-14,o),
(650,-14,cs)
);
},
{
closed = 1;
nodes = (
(595,48,o),
(574,82,o),
(574,175,cs),
(574,253,l),
(612,461,o),
(714,480,o),
(746,480,cs),
(839,480,o),
(859,405,o),
(859,352,cs),
(859,181,o),
(785,48,o),
(659,48,cs)
);
}
);
width = 1033;
}
);
unicode = 71435;
},
{
glyphname = tha_ahom;
layers = (
{
anchors = (
{
name = Anchor10;
position = "{0, 0}";
},
{
name = Anchor11;
position = "{1020, 0}";
},
{
name = Anchor12;
position = "{0, 0}";
},
{
name = Anchor13;
position = "{540, 0}";
},
{
name = Anchor15;
position = "{740, 630}";
},
{
name = Anchor17;
position = "{930, 0}";
},
{
name = Anchor27;
position = "{1036, 490}";
},
{
name = Anchor8;
position = "{1020, 0}";
},
{
name = Anchor9;
position = "{0, 0}";
}
);
background = {
shapes = (
{
closed = 1;
nodes = (
(389,-12,o),
(460,32,o),
(509,101,c),
(533,34,o),
(584,-12,o),
(668,-12,cs),
(818,-12,o),
(956,161,o),
(956,344,cs),
(956,463,o),
(902,560,o),
(781,560,cs),
(724,560,o),
(668,528,o),
(620,481,c),
(622,494,o),
(623,503,o),
(623,511,cs),
(623,555,o),
(603,560,o),
(578,560,cs),
(549,560,o),
(544,546,o),
(537,505,cs),
(533,481,l),
(506,526,o),
(462,560,o),
(392,560,cs),
(318,560,o),
(251,505,o),
(211,431,c),
(218,431,l),
(208,489,o),
(162,560,o),
(73,560,cs),
(38,560,o),
(20,523,o),
(20,499,cs),
(20,487,o),
(25,477,o),
(36,477,cs),
(53,477,ls),
(128,477,o),
(134,397,o),
(134,383,cs),
(134,204,ls),
(134,85,o),
(187,-12,o),
(308,-12,cs)
);
},
{
closed = 1;
nodes = (
(267,65,o),
(227,122,o),
(227,224,cs),
(227,386,o),
(278,485,o),
(375,485,cs),
(463,485,o),
(502,426,o),
(502,324,cs),
(502,209,o),
(473,65,o),
(337,65,cs)
);
},
{
closed = 1;
nodes = (
(627,65,o),
(587,122,o),
(587,224,cs),
(587,363,o),
(634,485,o),
(749,485,cs),
(826,485,o),
(862,426,o),
(862,324,cs),
(862,186,o),
(824,65,o),
(697,65,cs)
);
}
);
};
layerId = "8FE481F4-9FBE-4592-9CC9-A6C081639EC4";
shapes = (
{
closed = 1;
nodes = (
(389,-12,o),
(460,32,o),
(509,101,c),
(533,34,o),
(584,-12,o),
(668,-12,cs),
(818,-12,o),
(956,161,o),
(956,344,cs),
(956,463,o),
(902,560,o),
(781,560,cs),
(724,560,o),
(668,528,o),
(620,481,c),
(622,494,o),
(623,503,o),
(623,511,cs),
(623,555,o),
(603,560,o),
(578,560,cs),
(549,560,o),
(544,546,o),
(537,505,cs),
(533,481,l),
(506,526,o),
(462,560,o),
(392,560,cs),
(318,560,o),
(251,505,o),
(211,431,c),
(218,431,l),
(208,489,o),
(162,560,o),
(73,560,cs),
(38,560,o),
(20,523,o),
(20,499,cs),
(20,487,o),
(25,477,o),
(36,477,cs),
(53,477,ls),
(128,477,o),
(134,397,o),
(134,383,cs),
(134,204,ls),
(134,85,o),
(187,-12,o),
(308,-12,cs)
);
},
{
closed = 1;
nodes = (
(267,65,o),
(227,122,o),
(227,224,cs),
(227,386,o),
(278,485,o),
(375,485,cs),
(463,485,o),
(502,426,o),
(502,324,cs),
(502,209,o),
(473,65,o),
(337,65,cs)
);
},
{
closed = 1;
nodes = (
(627,65,o),
(587,122,o),
(587,224,cs),
(587,363,o),
(634,485,o),
(749,485,cs),
(826,485,o),
(862,426,o),
(862,324,cs),
(862,186,o),
(824,65,o),
(697,65,cs)
);
}
);
width = 1036;
}
);
unicode = 71436;
},
{
glyphname = ra_ahom;
layers = (
{
anchors = (
{
name = Anchor10;
position = "{0, 0}";
},
{
name = Anchor11;
position = "{900, 0}";
},
{
name = Anchor12;
position = "{0, 0}";
},
{
name = Anchor13;
position = "{400, 120}";
},
{
name = Anchor15;
position = "{625, 750}";
},
{
name = Anchor17;
position = "{760, 0}";
},
{
name = Anchor27;
position = "{900, 490}";
},
{
name = Anchor8;
position = "{1020, 50}";
},
{
name = Anchor9;
position = "{0, 0}";
}
);
background = {
shapes = (
{
closed = 1;
nodes = (
(285,-14,o),
(361,39,o),
(410,122,c),
(448,31,o),
(524,-14,o),
(623,-14,cs),
(709,-14,o),
(785,33,o),
(785,126,cs),
(785,240,o),
(637,333,o),
(462,351,c),
(462,368,ls),
(462,569,o),
(547,624,o),
(619,624,cs),
(684,624,o),
(713,596,o),
(713,572,cs),
(713,564,o),
(703,560,o),
(691,557,cs),
(669,551,o),
(639,539,o),
(639,498,cs),
(639,462,o),
(664,442,o),
(706,442,cs),
(754,442,o),
(789,480,o),
(789,538,cs),
(789,609,o),
(746,690,o),
(619,690,cs),
(501,690,o),
(375,579,o),
(372,353,c),
(129,344,o),
(40,214,o),
(40,118,cs),
(40,75,o),
(66,-14,o),
(187,-14,cs)
);
},
{
closed = 1;
nodes = (
(145,48,o),
(125,90,o),
(125,120,cs),
(125,177,o),
(177,266,o),
(372,276,c),
(368,140,o),
(303,48,o),
(196,48,cs)
);
},
{
closed = 1;
nodes = (
(513,48,o),
(461,124,o),
(461,274,c),
(571,261,o),
(700,209,o),
(700,124,cs),
(700,76,o),
(681,48,o),
(623,48,cs)
);
}
);
};
layerId = "8FE481F4-9FBE-4592-9CC9-A6C081639EC4";
shapes = (
{
closed = 1;
nodes = (
(285,-14,o),
(361,39,o),
(410,122,c),
(448,31,o),
(524,-14,o),
(623,-14,cs),
(709,-14,o),
(785,33,o),
(785,126,cs),
(785,240,o),
(637,333,o),
(462,351,c),
(462,368,ls),
(462,569,o),
(547,624,o),
(619,624,cs),
(684,624,o),
(713,596,o),
(713,572,cs),
(713,564,o),
(703,560,o),
(691,557,cs),
(669,551,o),
(639,539,o),
(639,498,cs),
(639,462,o),
(664,442,o),
(706,442,cs),
(754,442,o),
(789,480,o),
(789,538,cs),
(789,609,o),
(746,690,o),
(619,690,cs),
(501,690,o),
(375,579,o),
(372,353,c),
(129,344,o),
(40,214,o),
(40,118,cs),
(40,75,o),
(66,-14,o),
(187,-14,cs)
);
},
{
closed = 1;
nodes = (
(145,48,o),
(125,90,o),
(125,120,cs),
(125,177,o),
(177,266,o),
(372,276,c),
(368,140,o),
(303,48,o),
(196,48,cs)
);
},
{
closed = 1;
nodes = (
(513,48,o),
(461,124,o),
(461,274,c),
(571,261,o),
(700,209,o),
(700,124,cs),
(700,76,o),
(681,48,o),
(623,48,cs)
);
}
);
width = 869;
}
);
unicode = 71437;
},
{
glyphname = la_ahom;
layers = (
{
anchors = (
{
name = Anchor10;
position = "{0, 0}";
},
{
name = Anchor11;
position = "{960, 0}";
},
{
name = Anchor12;
position = "{0, 0}";
},
{
name = Anchor13;
position = "{450, 0}";
},
{
name = Anchor15;
position = "{680, 630}";
},
{
name = Anchor17;
position = "{830, 0}";
},
{
name = Anchor27;
position = "{953, 490}";
},
{
name = Anchor8;
position = "{1020, 0}";
},
{
name = Anchor9;
position = "{0, 0}";
}
);
background = {
shapes = (
{
closed = 1;
nodes = (
(763,-14,o),
(873,135,o),
(873,345,cs),
(873,502,o),
(796,560,o),
(724,560,cs),
(688,560,o),
(662,536,o),
(662,502,cs),
(662,461,o),
(689,445,o),
(720,431,cs),
(756,415,o),
(794,396,o),
(794,324,cs),
(794,176,o),
(745,48,o),
(637,48,cs),
(582,48,o),
(554,82,o),
(554,175,cs),
(554,414,ls),
(554,526,o),
(526,536,o),
(498,536,cs),
(449,536,o),
(404,467,o),
(346,358,cs),
(224,130,l),
(224,338,ls),
(224,477,o),
(144,560,o),
(69,560,cs),
(43,560,o),
(20,531,o),
(20,499,cs),
(20,487,o),
(26,481,o),
(36,477,cs),
(102,451,o),
(134,423,o),
(134,325,cs),
(134,73,ls),
(134,4,o),
(159,-10,o),
(180,-10,cs),
(198,-10,o),
(216,-5,o),
(231,22,cs),
(391,318,ls),
(421,373,o),
(445,416,o),
(455,416,cs),
(464,416,o),
(464,394,o),
(464,350,cs),
(464,195,ls),
(464,81,o),
(499,-14,o),
(618,-14,cs)
);
}
);
};
layerId = "8FE481F4-9FBE-4592-9CC9-A6C081639EC4";
shapes = (
{
closed = 1;
nodes = (
(763,-14,o),
(873,135,o),
(873,345,cs),
(873,502,o),
(796,560,o),
(724,560,cs),
(688,560,o),
(662,536,o),
(662,502,cs),
(662,461,o),
(689,445,o),
(720,431,cs),
(756,415,o),
(794,396,o),
(794,324,cs),
(794,176,o),
(745,48,o),
(637,48,cs),
(582,48,o),
(554,82,o),
(554,175,cs),
(554,414,ls),
(554,526,o),
(526,536,o),
(498,536,cs),
(449,536,o),
(404,467,o),
(346,358,cs),
(224,130,l),
(224,338,ls),
(224,477,o),
(144,560,o),
(69,560,cs),
(43,560,o),
(20,531,o),
(20,499,cs),
(20,487,o),
(26,481,o),
(36,477,cs),
(102,451,o),
(134,423,o),
(134,325,cs),
(134,73,ls),
(134,4,o),
(159,-10,o),
(180,-10,cs),
(198,-10,o),
(216,-5,o),
(231,22,cs),
(391,318,ls),
(421,373,o),
(445,416,o),
(455,416,cs),
(464,416,o),
(464,394,o),
(464,350,cs),
(464,195,ls),
(464,81,o),
(499,-14,o),
(618,-14,cs)
);
}
);
width = 953;
}
);
unicode = 71438;
},
{
glyphname = sa_ahom;
layers = (
{
anchors = (
{
name = Anchor10;
position = "{0, 0}";
},
{
name = Anchor11;
position = "{960, 0}";
},
{
name = Anchor12;
position = "{0, 0}";
},
{
name = Anchor13;
position = "{520, 0}";
},
{
name = Anchor15;
position = "{730, 630}";
},
{
name = Anchor17;
position = "{830, 0}";
},
{
name = Anchor27;
position = "{1025, 490}";
},
{
name = Anchor8;
position = "{1020, 0}";
},
{
name = Anchor9;
position = "{0, 0}";
}
);
background = {
shapes = (
{
closed = 1;
nodes = (
(199,-10,o),
(214,-3,o),
(232,21,cs),
(423,281,ls),
(475,351,o),
(493,375,o),
(503,375,cs),
(513,375,o),
(514,358,o),
(514,314,cs),
(514,35,ls),
(514,5,o),
(537,-10,o),
(561,-10,cs),
(594,-10,o),
(620,10,o),
(642,27,cs),
(771,126,o),
(915,391,o),
(915,560,cs),
(915,615,o),
(900,648,o),
(865,648,cs),
(829,648,o),
(813,613,o),
(813,588,cs),
(813,572,o),
(815,559,o),
(817,546,cs),
(819,532,o),
(821,518,o),
(821,504,cs),
(821,356,o),
(699,137,o),
(604,64,c),
(604,378,ls),
(604,490,o),
(583,500,o),
(558,500,cs),
(512,500,o),
(433,393,o),
(380,321,cs),
(224,108,l),
(224,338,ls),
(224,477,o),
(144,560,o),
(69,560,cs),
(43,560,o),
(20,531,o),
(20,499,cs),
(20,487,o),
(26,481,o),
(36,477,cs),
(102,451,o),
(134,423,o),
(134,325,cs),
(134,73,ls),
(134,16,o),
(152,-10,o),
(178,-10,cs)
);
}
);
};
layerId = "8FE481F4-9FBE-4592-9CC9-A6C081639EC4";
shapes = (
{
closed = 1;
nodes = (
(199,-10,o),
(214,-3,o),
(232,21,cs),
(423,281,ls),
(475,351,o),
(493,375,o),
(503,375,cs),
(513,375,o),
(514,358,o),
(514,314,cs),
(514,35,ls),
(514,5,o),
(537,-10,o),
(561,-10,cs),
(594,-10,o),
(620,10,o),
(642,27,cs),
(771,126,o),
(915,391,o),
(915,560,cs),
(915,615,o),
(900,648,o),
(865,648,cs),
(829,648,o),
(813,613,o),
(813,588,cs),
(813,572,o),
(815,559,o),
(817,546,cs),
(819,532,o),
(821,518,o),
(821,504,cs),
(821,356,o),
(699,137,o),
(604,64,c),
(604,378,ls),
(604,490,o),
(583,500,o),
(558,500,cs),
(512,500,o),
(433,393,o),
(380,321,cs),
(224,108,l),
(224,338,ls),
(224,477,o),
(144,560,o),
(69,560,cs),
(43,560,o),
(20,531,o),
(20,499,cs),
(20,487,o),
(26,481,o),
(36,477,cs),
(102,451,o),
(134,423,o),
(134,325,cs),
(134,73,ls),
(134,16,o),
(152,-10,o),
(178,-10,cs)
);
}
);
width = 1025;
}
);
unicode = 71439;
},
{
glyphname = nya_ahom;
layers = (
{
anchors = (
{
name = Anchor10;
position = "{0, 0}";
},
{
name = Anchor11;
position = "{960, 0}";
},
{
name = Anchor12;
position = "{0, 0}";
},
{
name = Anchor13;
position = "{440, 0}";
},
{
name = Anchor15;
position = "{630, 630}";
},
{
name = Anchor17;
position = "{830, 0}";
},
{
name = Anchor27;
position = "{920, 490}";
},
{
name = Anchor8;
position = "{1020, 0}";
},
{
name = Anchor9;
position = "{0, 0}";
}
);
background = {
shapes = (
{
closed = 1;
nodes = (
(709,-14,o),
(840,114,o),
(840,220,cs),
(840,260,o),
(821,314,o),
(753,314,cs),
(709,314,o),
(686,284,o),
(686,253,cs),
(686,226,o),
(699,210,o),
(723,196,cs),
(739,187,o),
(753,179,o),
(753,161,cs),
(753,114,o),
(685,38,o),
(606,38,cs),
(590,38,o),
(554,49,o),
(554,96,cs),
(554,328,l),
(695,361,o),
(791,474,o),
(791,592,cs),
(791,625,o),
(783,635,o),
(765,635,cs),
(754,635,o),
(743,631,o),
(741,610,cs),
(734,519,o),
(648,439,o),
(554,407,c),
(554,434,ls),
(554,546,o),
(529,560,o),
(501,560,cs),
(458,560,o),
(411,489,o),
(370,411,cs),
(224,131,l),
(224,362,ls),
(224,490,o),
(151,560,o),
(66,560,cs),
(45,560,o),
(20,531,o),
(20,499,cs),
(20,487,o),
(26,481,o),
(36,477,cs),
(92,455,o),
(134,425,o),
(134,336,cs),
(134,73,ls),
(134,4,o),
(159,-10,o),
(180,-10,cs),
(198,-10,o),
(216,-6,o),
(229,19,cs),
(394,338,ls),
(423,393,o),
(445,433,o),
(455,433,cs),
(463,433,o),
(464,416,o),
(464,383,cs),
(464,105,ls),
(464,18,o),
(514,-14,o),
(579,-14,cs)
);
}
);
};
layerId = "8FE481F4-9FBE-4592-9CC9-A6C081639EC4";
shapes = (
{
closed = 1;
nodes = (
(709,-14,o),
(840,114,o),
(840,220,cs),
(840,260,o),
(821,314,o),
(753,314,cs),
(709,314,o),
(686,284,o),
(686,253,cs),
(686,226,o),
(699,210,o),
(723,196,cs),
(739,187,o),
(753,179,o),
(753,161,cs),
(753,114,o),
(685,38,o),
(606,38,cs),
(590,38,o),
(554,49,o),
(554,96,cs),
(554,328,l),
(695,361,o),
(791,474,o),
(791,592,cs),
(791,625,o),
(783,635,o),
(765,635,cs),
(754,635,o),
(743,631,o),
(741,610,cs),
(734,519,o),
(648,439,o),
(554,407,c),
(554,434,ls),
(554,546,o),
(529,560,o),
(501,560,cs),
(458,560,o),
(411,489,o),
(370,411,cs),
(224,131,l),
(224,362,ls),
(224,490,o),
(151,560,o),
(66,560,cs),
(45,560,o),
(20,531,o),
(20,499,cs),
(20,487,o),
(26,481,o),
(36,477,cs),
(92,455,o),
(134,425,o),
(134,336,cs),
(134,73,ls),
(134,4,o),
(159,-10,o),
(180,-10,cs),
(198,-10,o),
(216,-6,o),
(229,19,cs),
(394,338,ls),
(423,393,o),
(445,433,o),
(455,433,cs),
(463,433,o),
(464,416,o),
(464,383,cs),
(464,105,ls),
(464,18,o),
(514,-14,o),
(579,-14,cs)
);
}
);
width = 920;
}
);
unicode = 71440;
},
{
glyphname = ha_ahom;
layers = (
{
anchors = (
{
name = Anchor10;
position = "{0, 0}";
},
{
name = Anchor11;
position = "{0, 0}";
},
{
name = Anchor12;
position = "{720, 0}";
},
{
name = Anchor13;
position = "{260, 0}";
},
{
name = Anchor15;
position = "{455, 630}";
},
{
name = Anchor17;
position = "{610, 0}";
},
{
name = Anchor27;
position = "{724, 490}";
},
{
name = Anchor8;
position = "{0, 0}";
},
{
name = Anchor9;
position = "{720, 0}";
}
);
background = {
shapes = (
{
closed = 1;
nodes = (
(201,0,o),
(218,11,o),
(229,28,cs),
(432,350,ls),
(478,423,o),
(492,445,o),
(502,445,cs),
(514,445,o),
(514,418,o),
(514,374,cs),
(514,25,ls),
(514,5,o),
(537,0,o),
(561,0,cs),
(582,0,o),
(604,1,o),
(604,25,cs),
(604,438,ls),
(604,539,o),
(585,560,o),
(544,560,cs),
(502,560,o),
(466,516,o),
(388,390,cs),
(224,127,l),
(224,354,ls),
(224,422,o),
(151,560,o),
(66,560,cs),
(45,560,o),
(20,523,o),
(20,499,cs),
(20,487,o),
(26,481,o),
(36,477,cs),
(127,438,o),
(134,350,o),
(134,336,cs),
(134,83,ls),
(134,14,o),
(159,0,o),
(180,0,cs)
);
}
);
};
layerId = "8FE481F4-9FBE-4592-9CC9-A6C081639EC4";
shapes = (
{
closed = 1;
nodes = (
(201,0,o),
(218,11,o),
(229,28,cs),
(432,350,ls),
(478,423,o),
(492,445,o),
(502,445,cs),
(514,445,o),
(514,418,o),
(514,374,cs),
(514,25,ls),
(514,5,o),
(537,0,o),
(561,0,cs),
(582,0,o),
(604,1,o),
(604,25,cs),
(604,438,ls),
(604,539,o),
(585,560,o),
(544,560,cs),
(502,560,o),
(466,516,o),
(388,390,cs),
(224,127,l),
(224,354,ls),
(224,422,o),
(151,560,o),
(66,560,cs),
(45,560,o),
(20,523,o),
(20,499,cs),
(20,487,o),
(26,481,o),
(36,477,cs),
(127,438,o),
(134,350,o),
(134,336,cs),
(134,83,ls),
(134,14,o),
(159,0,o),
(180,0,cs)
);
}
);
width = 724;
}
);
unicode = 71441;
},
{
glyphname = a_ahom;
layers = (
{
anchors = (
{
name = Anchor10;
position = "{0, 0}";
},
{
name = Anchor11;
position = "{960, 0}";
},
{
name = Anchor12;
position = "{0, 0}";
},
{
name = Anchor13;
position = "{520, 0}";
},
{
name = Anchor15;
position = "{770, 630}";
},
{
name = Anchor17;
position = "{830, 0}";
},
{
name = Anchor27;
position = "{944, 490}";
},
{
name = Anchor8;
position = "{1020, 40}";
},
{
name = Anchor9;
position = "{0, 0}";
}
);
background = {
shapes = (
{
closed = 1;
nodes = (
(204,-10,o),
(224,-2,o),
(224,15,cs),
(224,364,l),
(272,425,o),
(337,478,o),
(373,478,cs),
(417,478,o),
(434,447,o),
(434,353,cs),
(434,15,ls),
(434,-2,o),
(456,-10,o),
(479,-10,cs),
(501,-10,o),
(524,-2,o),
(524,15,cs),
(524,362,l),
(573,425,o),
(637,478,o),
(673,478,cs),
(717,478,o),
(734,447,o),
(734,353,cs),
(734,15,ls),
(734,-5,o),
(757,-10,o),
(781,-10,cs),
(802,-10,o),
(824,-9,o),
(824,15,cs),
(824,377,ls),
(824,529,o),
(772,560,o),
(710,560,cs),
(647,560,o),
(570,497,o),
(520,442,c),
(506,538,o),
(462,560,o),
(410,560,cs),
(382,560,o),
(353,549,o),
(323,530,c),
(317,507,l),
(389,624,o),
(442,638,o),
(463,638,cs),
(474,638,o),
(484,637,o),
(495,635,cs),
(504,633,o),
(514,633,o),
(523,633,cs),
(548,633,o),
(585,649,o),
(585,692,cs),
(585,728,o),
(553,740,o),
(531,740,cs),
(479,740,o),
(366,699,o),
(244,467,c),
(230,453,o),
(217,440,o),
(206,427,c),
(180,491,o),
(126,560,o),
(66,560,cs),
(45,560,o),
(20,523,o),
(20,499,cs),
(20,487,o),
(26,481,o),
(36,477,cs),
(127,438,o),
(134,350,o),
(134,336,cs),
(134,15,ls),
(134,-4,o),
(159,-10,o),
(180,-10,cs)
);
}
);
};
layerId = "8FE481F4-9FBE-4592-9CC9-A6C081639EC4";
shapes = (
{
closed = 1;
nodes = (
(204,-10,o),
(224,-2,o),
(224,15,cs),
(224,364,l),
(272,425,o),
(337,478,o),
(373,478,cs),
(417,478,o),
(434,447,o),
(434,353,cs),
(434,15,ls),
(434,-2,o),
(456,-10,o),
(479,-10,cs),
(501,-10,o),
(524,-2,o),
(524,15,cs),
(524,362,l),
(573,425,o),
(637,478,o),
(673,478,cs),
(717,478,o),
(734,447,o),
(734,353,cs),
(734,15,ls),
(734,-5,o),
(757,-10,o),
(781,-10,cs),
(802,-10,o),
(824,-9,o),
(824,15,cs),
(824,377,ls),
(824,529,o),
(772,560,o),
(710,560,cs),
(647,560,o),
(570,497,o),
(520,442,c),
(506,538,o),
(462,560,o),
(410,560,cs),
(382,560,o),
(353,549,o),
(323,530,c),
(317,507,l),
(389,624,o),
(442,638,o),
(463,638,cs),
(474,638,o),
(484,637,o),
(495,635,cs),
(504,633,o),
(514,633,o),
(523,633,cs),
(548,633,o),
(585,649,o),
(585,692,cs),
(585,728,o),
(553,740,o),
(531,740,cs),
(479,740,o),
(366,699,o),
(244,467,c),
(230,453,o),
(217,440,o),
(206,427,c),
(180,491,o),
(126,560,o),
(66,560,cs),
(45,560,o),
(20,523,o),
(20,499,cs),
(20,487,o),
(26,481,o),
(36,477,cs),
(127,438,o),
(134,350,o),
(134,336,cs),
(134,15,ls),
(134,-4,o),
(159,-10,o),
(180,-10,cs)
);
}
);
width = 944;
}
);
unicode = 71442;
},
{
glyphname = da_ahom;
layers = (
{
anchors = (
{
name = Anchor10;
position = "{960, 0}";
},
{
name = Anchor11;
position = "{900, -150}";
},
{
name = Anchor12;
position = "{800, -150}";
},
{
name = Anchor13;
position = "{260, 0}";
},
{
name = Anchor15;
position = "{450, 630}";
},
{
name = Anchor17;
position = "{640, -200}";
},
{
name = Anchor27;
position = "{727, 490}";
},
{
name = Anchor8;
position = "{0, 0}";
},
{
name = Anchor9;
position = "{720, 0}";
}
);
background = {
shapes = (
{
closed = 1;
nodes = (
(529,-240,o),
(647,-172,o),
(647,-14,cs),
(647,123,o),
(544,203,o),
(426,203,cs),
(341,203,o),
(271,158,o),
(224,106,c),
(224,324,ls),
(224,380,o),
(213,417,o),
(194,453,c),
(205,453,ls),
(247,453,o),
(290,459,o),
(330,465,cs),
(362,470,o),
(392,474,o),
(416,474,cs),
(446,474,o),
(467,458,o),
(488,442,cs),
(508,426,o),
(528,410,o),
(557,410,cs),
(582,410,o),
(625,430,o),
(625,478,cs),
(625,523,o),
(596,550,o),
(548,550,cs),
(506,550,o),
(458,542,o),
(407,531,cs),
(350,519,o),
(291,508,o),
(232,508,cs),
(204,508,o),
(176,510,o),
(149,517,c),
(125,542,o),
(96,560,o),
(66,560,cs),
(45,560,o),
(20,523,o),
(20,499,cs),
(20,487,o),
(26,481,o),
(36,477,cs),
(127,438,o),
(134,350,o),
(134,336,cs),
(134,73,ls),
(134,4,o),
(159,-10,o),
(180,-10,cs),
(208,-10,o),
(221,2,o),
(227,13,cs),
(263,79,o),
(326,121,o),
(419,121,cs),
(484,121,o),
(553,85,o),
(553,-14,cs),
(553,-151,o),
(490,-176,o),
(448,-176,cs),
(412,-176,o),
(406,-151,o),
(401,-125,cs),
(396,-97,o),
(382,-66,o),
(343,-66,cs),
(305,-66,o),
(282,-93,o),
(282,-131,cs),
(282,-210,o),
(366,-240,o),
(439,-240,cs)
);
}
);
};
layerId = "8FE481F4-9FBE-4592-9CC9-A6C081639EC4";
shapes = (
{
closed = 1;
nodes = (
(529,-240,o),
(647,-172,o),
(647,-14,cs),
(647,123,o),
(544,203,o),
(426,203,cs),
(341,203,o),
(271,158,o),
(224,106,c),
(224,324,ls),
(224,380,o),
(213,417,o),
(194,453,c),
(205,453,ls),
(247,453,o),
(290,459,o),
(330,465,cs),
(362,470,o),
(392,474,o),
(416,474,cs),
(446,474,o),
(467,458,o),
(488,442,cs),
(508,426,o),
(528,410,o),
(557,410,cs),
(582,410,o),
(625,430,o),
(625,478,cs),
(625,523,o),
(596,550,o),
(548,550,cs),
(506,550,o),
(458,542,o),
(407,531,cs),
(350,519,o),
(291,508,o),
(232,508,cs),
(204,508,o),
(176,510,o),
(149,517,c),
(125,542,o),
(96,560,o),
(66,560,cs),
(45,560,o),
(20,523,o),
(20,499,cs),
(20,487,o),
(26,481,o),
(36,477,cs),
(127,438,o),
(134,350,o),
(134,336,cs),
(134,73,ls),
(134,4,o),
(159,-10,o),
(180,-10,cs),
(208,-10,o),
(221,2,o),
(227,13,cs),
(263,79,o),
(326,121,o),
(419,121,cs),
(484,121,o),
(553,85,o),
(553,-14,cs),
(553,-151,o),
(490,-176,o),
(448,-176,cs),
(412,-176,o),
(406,-151,o),
(401,-125,cs),
(396,-97,o),
(382,-66,o),
(343,-66,cs),
(305,-66,o),
(282,-93,o),
(282,-131,cs),
(282,-210,o),
(366,-240,o),
(439,-240,cs)
);
}
);
width = 727;
}
);
unicode = 71443;
},
{
glyphname = dha_ahom;
layers = (
{
anchors = (
{
name = Anchor10;
position = "{1000, 0}";
},
{
name = Anchor11;
position = "{960, -150}";
},
{
name = Anchor12;
position = "{860, -150}";
},
{
name = Anchor13;
position = "{560, 0}";
},
{
name = Anchor15;
position = "{750, 630}";
},
{
name = Anchor17;
position = "{900, 0}";
},
{
name = Anchor27;
position = "{1036, 490}";
},
{
name = Anchor8;
position = "{1020, 0}";
},
{
name = Anchor9;
position = "{0, 0}";
}
);
background = {
shapes = (
{
closed = 1;
nodes = (
(555,-320,o),
(647,-180,o),
(647,-41,cs),
(647,-23,o),
(645,-5,o),
(635,16,c),
(621,7,l),
(634,-5,o),
(659,-12,o),
(689,-12,cs),
(815,-12,o),
(956,156,o),
(956,344,cs),
(956,463,o),
(902,560,o),
(781,560,cs),
(718,560,o),
(643,519,o),
(605,456,c),
(610,451,l),
(613,465,o),
(618,498,o),
(618,511,cs),
(618,548,o),
(603,560,o),
(578,560,cs),
(549,560,o),
(535,546,o),
(532,505,cs),
(528,453,l),
(538,453,l),
(516,518,o),
(470,560,o),
(392,560,cs),
(310,560,o),
(243,502,o),
(205,421,c),
(214,424,l),
(208,489,o),
(162,560,o),
(73,560,cs),
(38,560,o),
(20,523,o),
(20,499,cs),
(20,487,o),
(25,477,o),
(36,477,cs),
(53,477,ls),
(128,477,o),
(134,397,o),
(134,383,cs),
(134,204,ls),
(134,85,o),
(187,-12,o),
(308,-12,cs),
(335,-12,o),
(363,-7,o),
(388,9,c),
(378,12,l),
(354,-32,o),
(337,-84,o),
(337,-149,cs),
(337,-247,o),
(386,-320,o),
(468,-320,cs)
);
},
{
closed = 1;
nodes = (
(443,-236,o),
(417,-207,o),
(417,-132,cs),
(417,-38,o),
(460,49,o),
(549,159,c),
(531,150,l),
(552,88,o),
(567,10,o),
(567,-55,cs),
(567,-179,o),
(534,-236,o),
(487,-236,cs)
);
},
{
closed = 1;
nodes = (
(267,65,o),
(227,122,o),
(227,224,cs),
(227,386,o),
(278,485,o),
(375,485,cs),
(463,485,o),
(502,426,o),
(502,324,cs),
(502,209,o),
(473,65,o),
(337,65,cs)
);
},
{
closed = 1;
nodes = (
(627,65,o),
(587,122,o),
(587,224,cs),
(587,363,o),
(634,485,o),
(749,485,cs),
(826,485,o),
(862,426,o),
(862,324,cs),
(862,131,o),
(797,65,o),
(702,65,cs)
);
}
);
};
layerId = "8FE481F4-9FBE-4592-9CC9-A6C081639EC4";
shapes = (
{
closed = 1;
nodes = (
(555,-320,o),
(647,-180,o),
(647,-41,cs),
(647,-23,o),
(645,-5,o),
(635,16,c),
(621,7,l),
(634,-5,o),
(659,-12,o),
(689,-12,cs),
(815,-12,o),
(956,156,o),
(956,344,cs),
(956,463,o),
(902,560,o),
(781,560,cs),
(718,560,o),
(643,519,o),
(605,456,c),
(610,451,l),
(613,465,o),
(618,498,o),
(618,511,cs),
(618,548,o),
(603,560,o),
(578,560,cs),
(549,560,o),
(535,546,o),
(532,505,cs),
(528,453,l),
(538,453,l),
(516,518,o),
(470,560,o),
(392,560,cs),
(310,560,o),
(243,502,o),
(205,421,c),
(214,424,l),
(208,489,o),
(162,560,o),
(73,560,cs),
(38,560,o),
(20,523,o),
(20,499,cs),
(20,487,o),
(25,477,o),
(36,477,cs),
(53,477,ls),
(128,477,o),
(134,397,o),
(134,383,cs),
(134,204,ls),
(134,85,o),
(187,-12,o),
(308,-12,cs),
(335,-12,o),
(363,-7,o),
(388,9,c),
(378,12,l),
(354,-32,o),
(337,-84,o),
(337,-149,cs),
(337,-247,o),
(386,-320,o),
(468,-320,cs)
);
},
{
closed = 1;
nodes = (
(443,-236,o),
(417,-207,o),
(417,-132,cs),
(417,-38,o),
(460,49,o),
(549,159,c),
(531,150,l),
(552,88,o),
(567,10,o),
(567,-55,cs),
(567,-179,o),
(534,-236,o),
(487,-236,cs)
);
},
{
closed = 1;
nodes = (
(267,65,o),
(227,122,o),
(227,224,cs),
(227,386,o),
(278,485,o),
(375,485,cs),
(463,485,o),
(502,426,o),
(502,324,cs),
(502,209,o),
(473,65,o),
(337,65,cs)
);
},
{
closed = 1;
nodes = (
(627,65,o),
(587,122,o),
(587,224,cs),
(587,363,o),
(634,485,o),
(749,485,cs),
(826,485,o),
(862,426,o),
(862,324,cs),
(862,131,o),
(797,65,o),
(702,65,cs)
);
}
);
width = 1036;
}
);
unicode = 71444;
},
{
glyphname = ga_ahom;
layers = (
{
anchors = (
{
name = Anchor10;
position = "{0, 0}";
},
{
name = Anchor11;
position = "{0, 0}";
},
{
name = Anchor12;
position = "{820, 0}";
},
{
name = Anchor13;
position = "{400, 0}";
},
{
name = Anchor15;
position = "{520, 630}";
},
{
name = Anchor17;
position = "{720, 0}";
},
{
name = Anchor27;
position = "{836, 490}";
},
{
name = Anchor8;
position = "{0, 0}";
},
{
name = Anchor9;
position = "{800, 0}";
}
);
background = {
shapes = (
{
closed = 1;
nodes = (
(308,-14,o),
(330,6,o),
(330,36,cs),
(330,66,o),
(312,91,o),
(267,101,cs),
(218,112,o),
(144,130,o),
(144,265,cs),
(144,402,o),
(235,492,o),
(418,492,cs),
(602,492,o),
(692,402,o),
(692,265,cs),
(692,115,o),
(620,83,o),
(571,66,cs),
(542,56,o),
(532,36,o),
(532,19,cs),
(532,3,o),
(546,-14,o),
(577,-14,cs),
(687,-14,o),
(776,118,o),
(776,250,cs),
(776,427,o),
(650,560,o),
(418,560,cs),
(200,560,o),
(60,423,o),
(60,240,cs),
(60,97,o),
(148,-14,o),
(265,-14,cs)
);
}
);
};
layerId = "8FE481F4-9FBE-4592-9CC9-A6C081639EC4";
shapes = (
{
closed = 1;
nodes = (
(308,-14,o),
(330,6,o),
(330,36,cs),
(330,66,o),
(312,91,o),
(267,101,cs),
(218,112,o),
(144,130,o),
(144,265,cs),
(144,402,o),
(235,492,o),
(418,492,cs),
(602,492,o),
(692,402,o),
(692,265,cs),
(692,115,o),
(620,83,o),
(571,66,cs),
(542,56,o),
(532,36,o),
(532,19,cs),
(532,3,o),
(546,-14,o),
(577,-14,cs),
(687,-14,o),
(776,118,o),
(776,250,cs),
(776,427,o),
(650,560,o),
(418,560,cs),
(200,560,o),
(60,423,o),
(60,240,cs),
(60,97,o),
(148,-14,o),
(265,-14,cs)
);
}
);
width = 836;
}
);
unicode = 71445;
},
{
glyphname = ga_ahom.alt;
layers = (
{
anchors = (
{
name = Anchor10;
position = "{0, 0}";
},
{
name = Anchor11;
position = "{0, 0}";
},
{
name = Anchor12;
position = "{620, 0}";
},
{
name = Anchor13;
position = "{80, 0}";
},
{
name = Anchor15;
position = "{287, 630}";
},
{
name = Anchor17;
position = "{441, 0}";
},
{
name = Anchor27;
position = "{555, 490}";
},
{
name = Anchor8;
position = "{0, 0}";
},
{
name = Anchor9;
position = "{680, 0}";
}
);
background = {
shapes = (
{
closed = 1;
nodes = (
(161,-14,o),
(172,-12,o),
(178,-10,cs),
(323,38,o),
(475,137,o),
(475,326,cs),
(475,444,o),
(411,560,o),
(263,560,cs),
(139,560,o),
(80,465,o),
(80,399,cs),
(80,331,o),
(117,293,o),
(173,293,cs),
(220,293,o),
(254,326,o),
(254,366,cs),
(254,398,o),
(236,412,o),
(216,423,cs),
(202,431,o),
(192,438,o),
(192,451,cs),
(192,470,o),
(213,493,o),
(261,493,cs),
(320,493,o),
(381,443,o),
(381,338,cs),
(381,160,o),
(208,94,o),
(158,80,cs),
(120,69,o),
(105,53,o),
(105,30,cs),
(105,6,o),
(125,-14,o),
(151,-14,cs)
);
}
);
};
layerId = "8FE481F4-9FBE-4592-9CC9-A6C081639EC4";
shapes = (
{
closed = 1;
nodes = (
(161,-14,o),
(172,-12,o),
(178,-10,cs),
(323,38,o),
(475,137,o),
(475,326,cs),
(475,444,o),
(411,560,o),
(263,560,cs),
(139,560,o),
(80,465,o),
(80,399,cs),
(80,331,o),
(117,293,o),
(173,293,cs),
(220,293,o),
(254,326,o),
(254,366,cs),
(254,398,o),
(236,412,o),
(216,423,cs),
(202,431,o),
(192,438,o),
(192,451,cs),
(192,470,o),
(213,493,o),
(261,493,cs),
(320,493,o),
(381,443,o),
(381,338,cs),
(381,160,o),
(208,94,o),
(158,80,cs),
(120,69,o),
(105,53,o),
(105,30,cs),
(105,6,o),
(125,-14,o),
(151,-14,cs)
);
}
);
width = 555;
}
);
},
{
glyphname = alt_ga_ahom;
layers = (
{
anchors = (
{
name = Anchor10;
position = "{0, 0}";
},
{
name = Anchor11;
position = "{1100, 0}";
},
{
name = Anchor12;
position = "{0, 0}";
},
{
name = Anchor13;
position = "{650, 0}";
},
{
name = Anchor15;
position = "{850, 630}";
},
{
name = Anchor17;
position = "{1060, 0}";
},
{
name = Anchor27;
position = "{1146, 490}";
},
{
name = Anchor8;
position = "{1080, 0}";
},
{
name = Anchor9;
position = "{0, 0}";
}
);
background = {
shapes = (
{
closed = 1;
nodes = (
(308,-14,o),
(330,6,o),
(330,36,cs),
(330,60,o),
(312,87,o),
(267,101,cs),
(218,116,o),
(144,130,o),
(144,265,cs),
(144,422,o),
(255,492,o),
(378,492,cs),
(502,492,o),
(602,422,o),
(602,265,cs),
(602,115,o),
(530,83,o),
(481,66,cs),
(452,56,o),
(442,38,o),
(442,21,cs),
(442,5,o),
(453,-14,o),
(491,-14,cs),
(601,-14,o),
(686,118,o),
(686,250,cs),
(686,329,o),
(667,397,o),
(629,449,c),
(670,478,o),
(723,492,o),
(778,492,cs),
(902,492,o),
(1002,422,o),
(1002,265,cs),
(1002,87,o),
(916,63,o),
(888,63,cs),
(866,63,o),
(858,79,o),
(852,97,cs),
(846,115,o),
(836,135,o),
(811,135,cs),
(785,135,o),
(759,115,o),
(759,81,cs),
(759,34,o),
(799,-14,o),
(872,-14,cs),
(996,-14,o),
(1086,113,o),
(1086,263,cs),
(1086,438,o),
(980,560,o),
(778,560,cs),
(703,560,o),
(636,538,o),
(582,498,c),
(531,537,o),
(463,560,o),
(378,560,cs),
(200,560,o),
(60,433,o),
(60,240,cs),
(60,97,o),
(148,-14,o),
(265,-14,cs)
);
}
);
};
layerId = "8FE481F4-9FBE-4592-9CC9-A6C081639EC4";
shapes = (
{
closed = 1;
nodes = (
(308,-14,o),
(330,6,o),
(330,36,cs),
(330,60,o),
(312,87,o),
(267,101,cs),
(218,116,o),
(144,130,o),
(144,265,cs),
(144,422,o),
(255,492,o),
(378,492,cs),
(502,492,o),
(602,422,o),
(602,265,cs),
(602,115,o),
(530,83,o),
(481,66,cs),
(452,56,o),
(442,38,o),
(442,21,cs),
(442,5,o),
(453,-14,o),
(491,-14,cs),
(601,-14,o),
(686,118,o),
(686,250,cs),
(686,329,o),
(667,397,o),
(629,449,c),
(670,478,o),
(723,492,o),
(778,492,cs),
(902,492,o),
(1002,422,o),
(1002,265,cs),
(1002,87,o),
(916,63,o),
(888,63,cs),
(866,63,o),
(858,79,o),
(852,97,cs),
(846,115,o),
(836,135,o),
(811,135,cs),
(785,135,o),
(759,115,o),
(759,81,cs),
(759,34,o),
(799,-14,o),
(872,-14,cs),
(996,-14,o),
(1086,113,o),
(1086,263,cs),
(1086,438,o),
(980,560,o),
(778,560,cs),
(703,560,o),
(636,538,o),
(582,498,c),
(531,537,o),
(463,560,o),
(378,560,cs),
(200,560,o),
(60,433,o),
(60,240,cs),
(60,97,o),
(148,-14,o),
(265,-14,cs)
);
}
);
width = 1146;
}
);
unicode = 71446;
},
{
glyphname = gha_ahom;
layers = (
{
anchors = (
{
name = Anchor10;
position = "{1000, 0}";
},
{
name = Anchor11;
position = "{860, -150}";
},
{
name = Anchor12;
position = "{680, -150}";
},
{
name = Anchor13;
position = "{520, 0}";
},
{
name = Anchor15;
position = "{740, 630}";
},
{
name = Anchor17;
position = "{830, 0}";
},
{
name = Anchor27;
position = "{964, 490}";
},
{
name = Anchor8;
position = "{1020, 0}";
},
{
name = Anchor9;
position = "{0, 0}";
}
);
background = {
shapes = (
{
closed = 1;
nodes = (
(413,-254,o),
(522,-185,o),
(522,-64,cs),
(522,6,o),
(469,75,o),
(412,115,c),
(433,150,o),
(451,191,o),
(469,232,cs),
(533,377,o),
(584,478,o),
(696,478,cs),
(761,478,o),
(830,442,o),
(830,343,cs),
(830,206,o),
(767,181,o),
(725,181,cs),
(689,181,o),
(682,205,o),
(678,231,cs),
(673,260,o),
(666,291,o),
(618,291,cs),
(588,291,o),
(559,264,o),
(559,226,cs),
(559,147,o),
(643,117,o),
(716,117,cs),
(806,117,o),
(924,185,o),
(924,343,cs),
(924,480,o),
(821,560,o),
(703,560,cs),
(561,560,o),
(491,453,o),
(420,277,cs),
(369,151,o),
(335,78,o),
(276,78,cs),
(243,78,o),
(224,103,o),
(224,168,cs),
(224,371,ls),
(224,517,o),
(147,560,o),
(73,560,cs),
(38,560,o),
(20,523,o),
(20,499,cs),
(20,487,o),
(25,477,o),
(36,477,cs),
(53,477,ls),
(104,477,o),
(134,444,o),
(134,383,cs),
(134,225,ls),
(134,121,o),
(168,16,o),
(271,16,cs),
(305,16,o),
(333,28,o),
(357,48,c),
(396,19,o),
(428,-20,o),
(428,-67,cs),
(428,-164,o),
(357,-192,o),
(302,-192,cs),
(202,-192,o),
(137,-109,o),
(121,-51,cs),
(117,-36,o),
(112,-25,o),
(81,-25,cs),
(60,-25,o),
(45,-38,o),
(45,-62,cs),
(45,-112,o),
(120,-254,o),
(297,-254,cs)
);
}
);
};
layerId = "8FE481F4-9FBE-4592-9CC9-A6C081639EC4";
shapes = (
{
closed = 1;
nodes = (
(413,-254,o),
(522,-185,o),
(522,-64,cs),
(522,6,o),
(469,75,o),
(412,115,c),
(433,150,o),
(451,191,o),
(469,232,cs),
(533,377,o),
(584,478,o),
(696,478,cs),
(761,478,o),
(830,442,o),
(830,343,cs),
(830,206,o),
(767,181,o),
(725,181,cs),
(689,181,o),
(682,205,o),
(678,231,cs),
(673,260,o),
(666,291,o),
(618,291,cs),
(588,291,o),
(559,264,o),
(559,226,cs),
(559,147,o),
(643,117,o),
(716,117,cs),
(806,117,o),
(924,185,o),
(924,343,cs),
(924,480,o),
(821,560,o),
(703,560,cs),
(561,560,o),
(491,453,o),
(420,277,cs),
(369,151,o),
(335,78,o),
(276,78,cs),
(243,78,o),
(224,103,o),
(224,168,cs),
(224,371,ls),
(224,517,o),
(147,560,o),
(73,560,cs),
(38,560,o),
(20,523,o),
(20,499,cs),
(20,487,o),
(25,477,o),
(36,477,cs),
(53,477,ls),
(104,477,o),
(134,444,o),
(134,383,cs),
(134,225,ls),
(134,121,o),
(168,16,o),
(271,16,cs),
(305,16,o),
(333,28,o),
(357,48,c),
(396,19,o),
(428,-20,o),
(428,-67,cs),
(428,-164,o),
(357,-192,o),
(302,-192,cs),
(202,-192,o),
(137,-109,o),
(121,-51,cs),
(117,-36,o),
(112,-25,o),
(81,-25,cs),
(60,-25,o),
(45,-38,o),
(45,-62,cs),
(45,-112,o),
(120,-254,o),
(297,-254,cs)
);
}
);
width = 964;
}
);
unicode = 71447;
},
{
glyphname = bha_ahom;
layers = (
{
anchors = (
{
name = Anchor10;
position = "{1000, 0}";
},
{
name = Anchor11;
position = "{960, -150}";
},
{
name = Anchor12;
position = "{860, -150}";
},
{
name = Anchor13;
position = "{560, 0}";
},
{
name = Anchor15;
position = "{760, 630}";
},
{
name = Anchor17;
position = "{930, 0}";
},
{
name = Anchor27;
position = "{1039, 490}";
},
{
name = Anchor8;
position = "{1020, 0}";
},
{
name = Anchor9;
position = "{0, 0}";
}
);
background = {
shapes = (
{
closed = 1;
nodes = (
(544,-320,o),
(646,-182,o),
(646,-41,cs),
(646,-30,o),
(645,-20,o),
(644,-10,c),
(653,-11,o),
(662,-12,o),
(671,-12,cs),
(821,-12,o),
(959,161,o),
(959,344,cs),
(959,463,o),
(905,560,o),
(784,560,cs),
(700,560,o),
(614,504,o),
(560,412,c),
(571,412,l),
(569,507,o),
(526,560,o),
(486,560,cs),
(472,560,o),
(450,552,o),
(450,531,cs),
(450,512,o),
(456,501,o),
(465,489,cs),
(483,465,o),
(504,435,o),
(504,324,cs),
(504,176,o),
(425,48,o),
(317,48,cs),
(239,48,o),
(224,90,o),
(224,165,cs),
(224,383,ls),
(224,502,o),
(153,560,o),
(73,560,cs),
(38,560,o),
(20,523,o),
(20,499,cs),
(20,487,o),
(25,477,o),
(36,477,cs),
(53,477,ls),
(97,477,o),
(134,443,o),
(134,383,cs),
(134,195,ls),
(134,91,o),
(156,-14,o),
(298,-14,cs),
(327,-14,o),
(357,-7,o),
(384,6,c),
(387,24,l),
(355,-24,o),
(336,-84,o),
(336,-149,cs),
(336,-247,o),
(385,-320,o),
(467,-320,cs)
);
},
{
closed = 1;
nodes = (
(443,-236,o),
(417,-207,o),
(417,-132,cs),
(417,-38,o),
(460,49,o),
(549,159,c),
(531,150,l),
(552,88,o),
(567,10,o),
(567,-55,cs),
(567,-179,o),
(534,-236,o),
(487,-236,cs)
);
},
{
closed = 1;
nodes = (
(630,65,o),
(590,122,o),
(590,224,cs),
(590,378,o),
(633,480,o),
(748,480,cs),
(825,480,o),
(865,426,o),
(865,324,cs),
(865,186,o),
(827,65,o),
(700,65,cs)
);
}
);
};
layerId = "8FE481F4-9FBE-4592-9CC9-A6C081639EC4";
shapes = (
{
closed = 1;
nodes = (
(544,-320,o),
(646,-182,o),
(646,-41,cs),
(646,-30,o),
(645,-20,o),
(644,-10,c),
(653,-11,o),
(662,-12,o),
(671,-12,cs),
(821,-12,o),
(959,161,o),
(959,344,cs),
(959,463,o),
(905,560,o),
(784,560,cs),
(700,560,o),
(614,504,o),
(560,412,c),
(571,412,l),
(569,507,o),
(526,560,o),
(486,560,cs),
(472,560,o),
(450,552,o),
(450,531,cs),
(450,512,o),
(456,501,o),
(465,489,cs),
(483,465,o),
(504,435,o),
(504,324,cs),
(504,176,o),
(425,48,o),
(317,48,cs),
(239,48,o),
(224,90,o),
(224,165,cs),
(224,383,ls),
(224,502,o),
(153,560,o),
(73,560,cs),
(38,560,o),
(20,523,o),
(20,499,cs),
(20,487,o),
(25,477,o),
(36,477,cs),
(53,477,ls),
(97,477,o),
(134,443,o),
(134,383,cs),
(134,195,ls),
(134,91,o),
(156,-14,o),
(298,-14,cs),
(327,-14,o),
(357,-7,o),
(384,6,c),
(387,24,l),
(355,-24,o),
(336,-84,o),
(336,-149,cs),
(336,-247,o),
(385,-320,o),
(467,-320,cs)
);
},
{
closed = 1;
nodes = (
(443,-236,o),
(417,-207,o),
(417,-132,cs),
(417,-38,o),
(460,49,o),
(549,159,c),
(531,150,l),
(552,88,o),
(567,10,o),
(567,-55,cs),
(567,-179,o),
(534,-236,o),
(487,-236,cs)
);
},
{
closed = 1;
nodes = (
(630,65,o),
(590,122,o),
(590,224,cs),
(590,378,o),
(633,480,o),
(748,480,cs),
(825,480,o),
(865,426,o),
(865,324,cs),
(865,186,o),
(827,65,o),
(700,65,cs)
);
}
);
width = 1039;
}
);
unicode = 71448;
},
{
glyphname = jha_ahom;
layers = (
{
anchors = (
{
name = Anchor10;
position = "{1000, 0}";
},
{
name = Anchor11;
position = "{960, -150}";
},
{
name = Anchor12;
position = "{840, -150}";
},
{
name = Anchor13;
position = "{450, 0}";
},
{
name = Anchor15;
position = "{670, 630}";
},
{
name = Anchor17;
position = "{830, 0}";
},
{
name = Anchor27;
position = "{953, 490}";
},
{
name = Anchor8;
position = "{1020, 0}";
},
{
name = Anchor9;
position = "{0, 0}";
}
);
background = {
shapes = (
{
closed = 1;
nodes = (
(523,-320,o),
(611,-177,o),
(611,-78,cs),
(611,-38,o),
(600,-10,o),
(585,6,c),
(585,-16,l),
(721,-16,o),
(873,141,o),
(873,345,cs),
(873,502,o),
(796,560,o),
(724,560,cs),
(688,560,o),
(662,536,o),
(662,505,cs),
(662,461,o),
(690,446,o),
(720,432,cs),
(755,416,o),
(794,397,o),
(794,324,cs),
(794,176,o),
(715,48,o),
(607,48,cs),
(552,48,o),
(524,82,o),
(524,175,cs),
(524,535,ls),
(524,552,o),
(501,560,o),
(479,560,cs),
(456,560,o),
(434,552,o),
(434,535,cs),
(434,247,ls),
(434,119,o),
(400,49,o),
(321,49,cs),
(264,49,o),
(224,62,o),
(224,219,cs),
(224,365,ls),
(224,515,o),
(138,560,o),
(73,560,cs),
(44,560,o),
(20,536,o),
(20,499,cs),
(20,487,o),
(25,477,o),
(36,477,cs),
(53,477,ls),
(100,477,o),
(134,451,o),
(134,365,cs),
(134,219,ls),
(134,32,o),
(219,-14,o),
(315,-14,cs),
(332,-14,o),
(351,-11,o),
(368,0,c),
(355,4,l),
(328,-39,o),
(315,-88,o),
(315,-149,cs),
(315,-247,o),
(364,-320,o),
(446,-320,cs)
);
},
{
closed = 1;
nodes = (
(421,-236,o),
(395,-207,o),
(395,-134,cs),
(395,-52,o),
(415,1,o),
(477,74,c),
(457,74,l),
(508,19,o),
(531,-21,o),
(531,-92,cs),
(531,-179,o),
(504,-236,o),
(452,-236,cs)
);
}
);
};
layerId = "8FE481F4-9FBE-4592-9CC9-A6C081639EC4";
shapes = (
{
closed = 1;
nodes = (
(523,-320,o),
(611,-177,o),
(611,-78,cs),
(611,-38,o),
(600,-10,o),
(585,6,c),
(585,-16,l),
(721,-16,o),
(873,141,o),
(873,345,cs),
(873,502,o),
(796,560,o),
(724,560,cs),
(688,560,o),
(662,536,o),
(662,505,cs),
(662,461,o),
(690,446,o),
(720,432,cs),
(755,416,o),
(794,397,o),
(794,324,cs),
(794,176,o),
(715,48,o),
(607,48,cs),
(552,48,o),
(524,82,o),
(524,175,cs),
(524,535,ls),
(524,552,o),
(501,560,o),
(479,560,cs),
(456,560,o),
(434,552,o),
(434,535,cs),
(434,247,ls),
(434,119,o),
(400,49,o),
(321,49,cs),
(264,49,o),
(224,62,o),
(224,219,cs),
(224,365,ls),
(224,515,o),
(138,560,o),
(73,560,cs),
(44,560,o),
(20,536,o),
(20,499,cs),
(20,487,o),
(25,477,o),
(36,477,cs),
(53,477,ls),
(100,477,o),
(134,451,o),
(134,365,cs),
(134,219,ls),
(134,32,o),
(219,-14,o),
(315,-14,cs),
(332,-14,o),
(351,-11,o),
(368,0,c),
(355,4,l),
(328,-39,o),
(315,-88,o),
(315,-149,cs),
(315,-247,o),
(364,-320,o),
(446,-320,cs)
);
},
{
closed = 1;
nodes = (
(421,-236,o),
(395,-207,o),
(395,-134,cs),
(395,-52,o),
(415,1,o),
(477,74,c),
(457,74,l),
(508,19,o),
(531,-21,o),
(531,-92,cs),
(531,-179,o),
(504,-236,o),
(452,-236,cs)
);
}
);
width = 953;
}
);
unicode = 71449;
},
{
glyphname = jha_ahom.alt;
layers = (
{
anchors = (
{
name = Anchor10;
position = "{1020, 200}";
},
{
name = Anchor11;
position = "{980, 0}";
},
{
name = Anchor12;
position = "{0, 0}";
},
{
name = Anchor13;
position = "{580, 0}";
},
{
name = Anchor15;
position = "{790, 630}";
},
{
name = Anchor17;
position = "{833, 0}";
},
{
name = Anchor27;
position = "{953, 490}";
},
{
name = Anchor8;
position = "{0, 0}";
},
{
name = Anchor9;
position = "{0, 0}";
}
);
background = {
shapes = (
{
closed = 1;
nodes = (
(370,-14,o),
(437,13,o),
(470,82,c),
(457,81,l),
(470,22,o),
(519,-14,o),
(588,-14,cs),
(723,-14,o),
(873,143,o),
(873,345,cs),
(873,502,o),
(796,560,o),
(724,560,cs),
(688,560,o),
(662,535,o),
(662,500,cs),
(662,467,o),
(685,444,o),
(719,430,cs),
(755,415,o),
(794,397,o),
(794,324,cs),
(794,176,o),
(715,48,o),
(607,48,cs),
(552,48,o),
(524,82,o),
(524,175,cs),
(524,513,l),
(586,543,o),
(638,621,o),
(638,730,cs),
(638,820,o),
(599,891,o),
(523,891,cs),
(414,891,o),
(351,759,o),
(351,673,cs),
(351,574,o),
(384,520,o),
(434,504,c),
(434,237,ls),
(434,92,o),
(384,49,o),
(316,49,cs),
(246,49,o),
(224,92,o),
(224,219,cs),
(224,365,ls),
(224,515,o),
(138,560,o),
(73,560,cs),
(44,560,o),
(20,535,o),
(20,499,cs),
(20,487,o),
(25,477,o),
(36,477,cs),
(53,477,ls),
(100,477,o),
(134,451,o),
(134,365,cs),
(134,219,ls),
(134,32,o),
(219,-14,o),
(315,-14,cs)
);
},
{
closed = 1;
nodes = (
(451,560,o),
(430,602,o),
(430,666,cs),
(430,796,o),
(466,831,o),
(508,831,cs),
(550,831,o),
(558,780,o),
(558,729,cs),
(558,640,o),
(548,560,o),
(486,560,cs)
);
}
);
};
layerId = "8FE481F4-9FBE-4592-9CC9-A6C081639EC4";
shapes = (
{
closed = 1;
nodes = (
(370,-14,o),
(437,13,o),
(470,82,c),
(457,81,l),
(470,22,o),
(519,-14,o),
(588,-14,cs),
(723,-14,o),
(873,143,o),
(873,345,cs),
(873,502,o),
(796,560,o),
(724,560,cs),
(688,560,o),
(662,535,o),
(662,500,cs),
(662,467,o),
(685,444,o),
(719,430,cs),
(755,415,o),
(794,397,o),
(794,324,cs),
(794,176,o),
(715,48,o),
(607,48,cs),
(552,48,o),
(524,82,o),
(524,175,cs),
(524,513,l),
(586,543,o),
(638,621,o),
(638,730,cs),
(638,820,o),
(599,891,o),
(523,891,cs),
(414,891,o),
(351,759,o),
(351,673,cs),
(351,574,o),
(384,520,o),
(434,504,c),
(434,237,ls),
(434,92,o),
(384,49,o),
(316,49,cs),
(246,49,o),
(224,92,o),
(224,219,cs),
(224,365,ls),
(224,515,o),
(138,560,o),
(73,560,cs),
(44,560,o),
(20,535,o),
(20,499,cs),
(20,487,o),
(25,477,o),
(36,477,cs),
(53,477,ls),
(100,477,o),
(134,451,o),
(134,365,cs),
(134,219,ls),
(134,32,o),
(219,-14,o),
(315,-14,cs)
);
},
{
closed = 1;
nodes = (
(451,560,o),
(430,602,o),
(430,666,cs),
(430,796,o),
(466,831,o),
(508,831,cs),
(550,831,o),
(558,780,o),
(558,729,cs),
(558,640,o),
(548,560,o),
(486,560,cs)
);
}
);
width = 953;
}
);
},
{
glyphname = alt_ba_ahom;
layers = (
{
anchors = (
{
name = Anchor10;
position = "{0, 0}";
},
{
name = Anchor11;
position = "{700, 0}";
},
{
name = Anchor12;
position = "{660, 0}";
},
{
name = Anchor13;
position = "{280, 0}";
},
{
name = Anchor15;
position = "{371, 630}";
},
{
name = Anchor17;
position = "{506, 0}";
},
{
name = Anchor27;
position = "{629, 490}";
},
{
name = Anchor8;
position = "{940, 0}";
},
{
name = Anchor9;
position = "{720, 0}";
}
);
background = {
shapes = (
{
closed = 1;
nodes = (
(179,550,o),
(60,387,o),
(60,195,cs),
(60,122,o),
(94,-4,o),
(253,-4,cs),
(397,-4,o),
(539,152,o),
(539,341,cs),
(539,467,o),
(466,550,o),
(350,550,cs)
);
},
{
closed = 1;
nodes = (
(178,68,o),
(150,135,o),
(150,218,cs),
(150,336,o),
(213,470,o),
(330,470,cs),
(422,470,o),
(445,385,o),
(445,317,cs),
(445,181,o),
(368,68,o),
(252,68,cs)
);
}
);
};
layerId = "8FE481F4-9FBE-4592-9CC9-A6C081639EC4";
shapes = (
{
closed = 1;
nodes = (
(179,550,o),
(60,387,o),
(60,195,cs),
(60,122,o),
(94,-4,o),
(253,-4,cs),
(397,-4,o),
(539,152,o),
(539,341,cs),
(539,467,o),
(466,550,o),
(350,550,cs)
);
},
{
closed = 1;
nodes = (
(178,68,o),
(150,135,o),
(150,218,cs),
(150,336,o),
(213,470,o),
(330,470,cs),
(422,470,o),
(445,385,o),
(445,317,cs),
(445,181,o),
(368,68,o),
(252,68,cs)
);
}
);
width = 619;
}
);
unicode = 71450;
},
{
glyphname = medialLa_ahom;
layers = (
{
anchors = (
{
name = Anchor25;
position = "{-175, -259}";
},
{
name = _Anchor11;
position = "{0, 0}";
}
);
background = {
shapes = (
{
closed = 1;
nodes = (
(-361,-303,o),
(-235,-259,o),
(-169,-171,cs),
(-152,-149,o),
(-138,-124,o),
(-137,-95,c),
(-137,-81,o),
(-155,-70,o),
(-177,-70,cs),
(-199,-70,o),
(-221,-76,o),
(-227,-93,cs),
(-260,-185,o),
(-376,-226,o),
(-488,-226,cs),
(-640,-226,o),
(-731,-160,o),
(-785,-109,cs),
(-791,-104,o),
(-804,-96,o),
(-810,-96,cs),
(-835,-96,o),
(-841,-113,o),
(-841,-129,cs),
(-841,-176,o),
(-698,-303,o),
(-488,-303,cs)
);
}
);
};
layerId = "8FE481F4-9FBE-4592-9CC9-A6C081639EC4";
shapes = (
{
closed = 1;
nodes = (
(-361,-303,o),
(-235,-259,o),
(-169,-171,cs),
(-152,-149,o),
(-138,-124,o),
(-137,-95,c),
(-137,-81,o),
(-155,-70,o),
(-177,-70,cs),
(-199,-70,o),
(-221,-76,o),
(-227,-93,cs),
(-260,-185,o),
(-376,-226,o),
(-488,-226,cs),
(-640,-226,o),
(-731,-160,o),
(-785,-109,cs),
(-791,-104,o),
(-804,-96,o),
(-810,-96,cs),
(-835,-96,o),
(-841,-113,o),
(-841,-129,cs),
(-841,-176,o),
(-698,-303,o),
(-488,-303,cs)
);
}
);
width = 0;
}
);
unicode = 71453;
},
{
glyphname = medialLa_ahom.sm;
layers = (
{
anchors = (
{
name = Anchor25;
position = "{-155, -269}";
},
{
name = _Anchor12;
position = "{0, 0}";
}
);
background = {
shapes = (
{
closed = 1;
nodes = (
(-291,-303,o),
(-206,-268,o),
(-152,-187,cs),
(-134,-161,o),
(-122,-117,o),
(-122,-98,cs),
(-122,-79,o),
(-138,-70,o),
(-162,-70,cs),
(-181,-70,o),
(-202,-79,o),
(-207,-98,cs),
(-234,-201,o),
(-315,-226,o),
(-383,-226,cs),
(-508,-226,o),
(-551,-165,o),
(-579,-125,cs),
(-589,-110,o),
(-599,-96,o),
(-616,-96,cs),
(-641,-96,o),
(-647,-113,o),
(-647,-129,cs),
(-647,-168,o),
(-562,-303,o),
(-381,-303,cs)
);
}
);
};
layerId = "8FE481F4-9FBE-4592-9CC9-A6C081639EC4";
shapes = (
{
closed = 1;
nodes = (
(-291,-303,o),
(-206,-268,o),
(-152,-187,cs),
(-134,-161,o),
(-122,-117,o),
(-122,-98,cs),
(-122,-79,o),
(-138,-70,o),
(-162,-70,cs),
(-181,-70,o),
(-202,-79,o),
(-207,-98,cs),
(-234,-201,o),
(-315,-226,o),
(-383,-226,cs),
(-508,-226,o),
(-551,-165,o),
(-579,-125,cs),
(-589,-110,o),
(-599,-96,o),
(-616,-96,cs),
(-641,-96,o),
(-647,-113,o),
(-647,-129,cs),
(-647,-168,o),
(-562,-303,o),
(-381,-303,cs)
);
}
);
width = 0;
}
);
},
{
glyphname = medialRa_ahom;
layers = (
{
anchors = (
{
name = Anchor22;
position = "{-250, 790}";
},
{
name = Anchor23;
position = "{-280, 800}";
},
{
name = Anchor25;
position = "{-250, -260}";
},
{
name = Anchor29;
position = "{0, 490}";
},
{
name = _Anchor8;
position = "{0, 0}";
}
);
background = {
shapes = (
{
closed = 1;
nodes = (
(-441,-303,o),
(-286,-260,o),
(-197,-184,cs),
(-170,-161,o),
(-138,-122,o),
(-138,-95,cs),
(-138,-77,o),
(-156,-70,o),
(-177,-70,cs),
(-212,-70,o),
(-220,-82,o),
(-227,-93,cs),
(-286,-186,o),
(-429,-226,o),
(-615,-226,cs),
(-765,-226,o),
(-1111,-170,o),
(-1111,251,cs),
(-1111,590,o),
(-907,733,o),
(-620,733,cs),
(-448,733,o),
(-351,704,o),
(-292,678,cs),
(-276,671,o),
(-265,667,o),
(-254,667,cs),
(-240,667,o),
(-225,679,o),
(-225,696,cs),
(-225,712,o),
(-233,720,o),
(-247,728,cs),
(-303,760,o),
(-439,800,o),
(-609,800,cs),
(-1068,800,o),
(-1205,466,o),
(-1205,249,cs),
(-1205,-246,o),
(-777,-303,o),
(-621,-303,cs)
);
}
);
};
layerId = "8FE481F4-9FBE-4592-9CC9-A6C081639EC4";
shapes = (
{
closed = 1;
nodes = (
(-441,-303,o),
(-286,-260,o),
(-197,-184,cs),
(-170,-161,o),
(-138,-122,o),
(-138,-95,cs),
(-138,-77,o),
(-156,-70,o),
(-177,-70,cs),
(-212,-70,o),
(-220,-82,o),
(-227,-93,cs),
(-286,-186,o),
(-429,-226,o),
(-615,-226,cs),
(-765,-226,o),
(-1111,-170,o),
(-1111,251,cs),
(-1111,590,o),
(-907,733,o),
(-620,733,cs),
(-448,733,o),
(-351,704,o),
(-292,678,cs),
(-276,671,o),
(-265,667,o),
(-254,667,cs),
(-240,667,o),
(-225,679,o),
(-225,696,cs),
(-225,712,o),
(-233,720,o),
(-247,728,cs),
(-303,760,o),
(-439,800,o),
(-609,800,cs),
(-1068,800,o),
(-1205,466,o),
(-1205,249,cs),
(-1205,-246,o),
(-777,-303,o),
(-621,-303,cs)
);
}
);
width = 0;
}
);
unicode = 71454;
},
{
glyphname = medialRa_ahom.sm;
layers = (
{
anchors = (
{
name = Anchor22;
position = "{-150, 790}";
},
{
name = Anchor23;
position = "{-160, 800}";
},
{
name = Anchor25;
position = "{-230, -260}";
},
{
name = Anchor29;
position = "{103, 490}";
},
{
name = _Anchor9;
position = "{0, 0}";
}
);
background = {
shapes = (
{
closed = 1;
nodes = (
(-372,-303,o),
(-255,-263,o),
(-190,-194,cs),
(-163,-165,o),
(-137,-123,o),
(-137,-95,cs),
(-137,-79,o),
(-150,-70,o),
(-181,-70,cs),
(-206,-70,o),
(-220,-78,o),
(-228,-96,cs),
(-272,-195,o),
(-380,-226,o),
(-458,-226,cs),
(-719,-226,o),
(-796,27,o),
(-796,251,cs),
(-796,580,o),
(-619,733,o),
(-410,733,cs),
(-283,733,o),
(-218,712,o),
(-184,700,cs),
(-171,695,o),
(-161,693,o),
(-151,693,cs),
(-135,693,o),
(-122,703,o),
(-122,720,cs),
(-122,736,o),
(-129,745,o),
(-144,752,cs),
(-202,778,o),
(-286,800,o),
(-402,800,cs),
(-679,800,o),
(-890,552,o),
(-890,249,cs),
(-890,-20,o),
(-757,-303,o),
(-455,-303,cs)
);
}
);
};
layerId = "8FE481F4-9FBE-4592-9CC9-A6C081639EC4";
shapes = (
{
closed = 1;
nodes = (
(-372,-303,o),
(-255,-263,o),
(-190,-194,cs),
(-163,-165,o),
(-137,-123,o),
(-137,-95,cs),
(-137,-79,o),
(-150,-70,o),
(-181,-70,cs),
(-206,-70,o),
(-220,-78,o),
(-228,-96,cs),
(-272,-195,o),
(-380,-226,o),
(-458,-226,cs),
(-719,-226,o),
(-796,27,o),
(-796,251,cs),
(-796,580,o),
(-619,733,o),
(-410,733,cs),
(-283,733,o),
(-218,712,o),
(-184,700,cs),
(-171,695,o),
(-161,693,o),
(-151,693,cs),
(-135,693,o),
(-122,703,o),
(-122,720,cs),
(-122,736,o),
(-129,745,o),
(-144,752,cs),
(-202,778,o),
(-286,800,o),
(-402,800,cs),
(-679,800,o),
(-890,552,o),
(-890,249,cs),
(-890,-20,o),
(-757,-303,o),
(-455,-303,cs)
);
}
);
width = 0;
}
);
},
{
glyphname = medialRa_ahom.desc;
layers = (
{
anchors = (
{
name = Anchor22;
position = "{-240, 790}";
},
{
name = Anchor23;
position = "{-250, 800}";
},
{
name = Anchor25;
position = "{-280, -400}";
},
{
name = Anchor29;
position = "{0, 490}";
},
{
name = _Anchor10;
position = "{0, 0}";
}
);
background = {
shapes = (
{
closed = 1;
nodes = (
(-441,-440,o),
(-299,-421,o),
(-197,-334,cs),
(-170,-311,o),
(-138,-272,o),
(-138,-245,cs),
(-138,-227,o),
(-156,-220,o),
(-179,-220,cs),
(-201,-220,o),
(-215,-227,o),
(-227,-243,cs),
(-299,-336,o),
(-429,-363,o),
(-551,-363,cs),
(-790,-363,o),
(-1111,-239,o),
(-1111,174,cs),
(-1111,580,o),
(-887,733,o),
(-578,733,cs),
(-418,733,o),
(-313,697,o),
(-262,679,cs),
(-246,673,o),
(-235,669,o),
(-223,669,cs),
(-206,669,o),
(-195,680,o),
(-195,696,cs),
(-195,712,o),
(-203,720,o),
(-217,728,cs),
(-261,753,o),
(-388,800,o),
(-579,800,cs),
(-1038,800,o),
(-1205,474,o),
(-1205,180,cs),
(-1205,-336,o),
(-777,-440,o),
(-554,-440,cs)
);
}
);
};
layerId = "8FE481F4-9FBE-4592-9CC9-A6C081639EC4";
shapes = (
{
closed = 1;
nodes = (
(-441,-440,o),
(-299,-421,o),
(-197,-334,cs),
(-170,-311,o),
(-138,-272,o),
(-138,-245,cs),
(-138,-227,o),
(-156,-220,o),
(-179,-220,cs),
(-201,-220,o),
(-215,-227,o),
(-227,-243,cs),
(-299,-336,o),
(-429,-363,o),
(-551,-363,cs),
(-790,-363,o),
(-1111,-239,o),
(-1111,174,cs),
(-1111,580,o),
(-887,733,o),
(-578,733,cs),
(-418,733,o),
(-313,697,o),
(-262,679,cs),
(-246,673,o),
(-235,669,o),
(-223,669,cs),
(-206,669,o),
(-195,680,o),
(-195,696,cs),
(-195,712,o),
(-203,720,o),
(-217,728,cs),
(-261,753,o),
(-388,800,o),
(-579,800,cs),
(-1038,800,o),
(-1205,474,o),
(-1205,180,cs),
(-1205,-336,o),
(-777,-440,o),
(-554,-440,cs)
);
}
);
width = 0;
}
);
},
{
glyphname = medialLigaRa_ahom;
layers = (
{
anchors = (
{
name = Anchor22;
position = "{480, 615}";
},
{
name = Anchor23;
position = "{450, 615}";
},
{
name = _Anchor13;
position = "{0, 0}";
}
);
background = {
shapes = (
{
closed = 1;
nodes = (
(221,630,o),
(238,667,o),
(238,683,cs),
(238,693,o),
(231,705,o),
(222,720,cs),
(208,744,o),
(189,777,o),
(189,822,cs),
(189,885,o),
(217,915,o),
(262,915,cs),
(279,915,o),
(290,912,o),
(301,909,cs),
(312,906,o),
(320,904,o),
(333,904,cs),
(350,904,o),
(360,919,o),
(360,940,cs),
(360,965,o),
(305,975,o),
(260,975,cs),
(169,975,o),
(100,910,o),
(100,820,cs),
(100,722,o),
(176,630,o),
(200,630,cs)
);
}
);
};
layerId = "8FE481F4-9FBE-4592-9CC9-A6C081639EC4";
shapes = (
{
closed = 1;
nodes = (
(221,630,o),
(238,667,o),
(238,683,cs),
(238,693,o),
(231,705,o),
(222,720,cs),
(208,744,o),
(189,777,o),
(189,822,cs),
(189,885,o),
(217,915,o),
(262,915,cs),
(279,915,o),
(290,912,o),
(301,909,cs),
(312,906,o),
(320,904,o),
(333,904,cs),
(350,904,o),
(360,919,o),
(360,940,cs),
(360,965,o),
(305,975,o),
(260,975,cs),
(169,975,o),
(100,910,o),
(100,820,cs),
(100,722,o),
(176,630,o),
(200,630,cs)
);
}
);
width = 0;
}
);
unicode = 71455;
},
{
glyphname = aSign_ahom;
layers = (
{
background = {
shapes = (
{
closed = 1;
nodes = (
(112,380,o),
(174,491,o),
(189,538,cs),
(200,572,o),
(205,604,o),
(205,639,cs),
(205,671,o),
(198,700,o),
(162,700,cs),
(142,700,o),
(134,691,o),
(134,669,cs),
(134,581,o),
(91,501,o),
(16,463,cs),
(6,458,o),
(0,453,o),
(0,441,cs),
(0,417,o),
(25,380,o),
(46,380,cs)
);
},
{
closed = 1;
nodes = (
(85,-75,o),
(96,-61,o),
(106,-47,cs),
(132,-11,o),
(170,45,o),
(170,112,cs),
(170,181,o),
(112,250,o),
(46,250,cs),
(25,250,o),
(0,213,o),
(0,189,cs),
(0,177,o),
(6,171,o),
(16,167,cs),
(72,145,o),
(80,105,o),
(80,80,cs),
(80,54,o),
(67,29,o),
(53,6,cs),
(41,-13,o),
(32,-32,o),
(32,-50,cs),
(32,-69,o),
(47,-75,o),
(58,-75,cs)
);
}
);
};
layerId = "8FE481F4-9FBE-4592-9CC9-A6C081639EC4";
shapes = (
{
closed = 1;
nodes = (
(112,380,o),
(174,491,o),
(189,538,cs),
(200,572,o),
(205,604,o),
(205,639,cs),
(205,671,o),
(198,700,o),
(162,700,cs),
(142,700,o),
(134,691,o),
(134,669,cs),
(134,581,o),
(91,501,o),
(16,463,cs),
(6,458,o),
(0,453,o),
(0,441,cs),
(0,417,o),
(25,380,o),
(46,380,cs)
);
},
{
closed = 1;
nodes = (
(85,-75,o),
(96,-61,o),
(106,-47,cs),
(132,-11,o),
(170,45,o),
(170,112,cs),
(170,181,o),
(112,250,o),
(46,250,cs),
(25,250,o),
(0,213,o),
(0,189,cs),
(0,177,o),
(6,171,o),
(16,167,cs),
(72,145,o),
(80,105,o),
(80,80,cs),
(80,54,o),
(67,29,o),
(53,6,cs),
(41,-13,o),
(32,-32,o),
(32,-50,cs),
(32,-69,o),
(47,-75,o),
(58,-75,cs)
);
}
);
width = 255;
}
);
unicode = 71456;
},
{
glyphname = aaSign_ahom;
layers = (
{
background = {
shapes = (
{
closed = 1;
nodes = (
(316,-240,o),
(414,-214,o),
(414,-175,cs),
(414,-161,o),
(402,-152,o),
(385,-152,cs),
(380,-152,o),
(375,-153,o),
(371,-155,cs),
(334,-172,o),
(302,-178,o),
(258,-178,cs),
(196,-178,o),
(154,-141,o),
(154,-30,cs),
(154,370,ls),
(154,501,o),
(86,560,o),
(-29,560,cs),
(-61,560,o),
(-80,545,o),
(-80,514,cs),
(-80,487,o),
(-56,477,o),
(-32,477,cs),
(35,477,o),
(64,458,o),
(64,349,cs),
(64,-34,ls),
(64,-167,o),
(134,-240,o),
(267,-240,cs)
);
}
);
};
layerId = "8FE481F4-9FBE-4592-9CC9-A6C081639EC4";
shapes = (
{
closed = 1;
nodes = (
(316,-240,o),
(414,-214,o),
(414,-175,cs),
(414,-161,o),
(402,-152,o),
(385,-152,cs),
(380,-152,o),
(375,-153,o),
(371,-155,cs),
(334,-172,o),
(302,-178,o),
(258,-178,cs),
(196,-178,o),
(154,-141,o),
(154,-30,cs),
(154,370,ls),
(154,501,o),
(86,560,o),
(-29,560,cs),
(-61,560,o),
(-80,545,o),
(-80,514,cs),
(-80,487,o),
(-56,477,o),
(-32,477,cs),
(35,477,o),
(64,458,o),
(64,349,cs),
(64,-34,ls),
(64,-167,o),
(134,-240,o),
(267,-240,cs)
);
}
);
width = 264;
}
);
unicode = 71457;
},
{
glyphname = iSign_ahom;
layers = (
{
anchors = (
{
name = Anchor31;
position = "{381, 490}";
},
{
name = Anchor33;
position = "{291, 490}";
},
{
name = Anchor35;
position = "{331, 490}";
},
{
name = _Anchor27;
position = "{0, 490}";
},
{
name = _Anchor29;
position = "{0, 490}";
},
{
name = _Anchor31;
position = "{0, 490}";
}
);
background = {
shapes = (
{
closed = 1;
nodes = (
(129,490,o),
(231,599,o),
(231,770,cs),
(231,880,o),
(186,968,o),
(98,968,cs),
(-27,968,o),
(-100,807,o),
(-100,701,cs),
(-100,556,o),
(-43,490,o),
(33,490,cs)
);
},
{
closed = 1;
nodes = (
(8,554,o),
(-18,607,o),
(-18,691,cs),
(-18,859,o),
(28,904,o),
(83,904,cs),
(137,904,o),
(149,839,o),
(149,772,cs),
(149,656,o),
(135,554,o),
(53,554,cs)
);
}
);
};
layerId = "8FE481F4-9FBE-4592-9CC9-A6C081639EC4";
shapes = (
{
closed = 1;
nodes = (
(129,490,o),
(231,599,o),
(231,770,cs),
(231,880,o),
(186,968,o),
(98,968,cs),
(-27,968,o),
(-100,807,o),
(-100,701,cs),
(-100,556,o),
(-43,490,o),
(33,490,cs)
);
},
{
closed = 1;
nodes = (
(8,554,o),
(-18,607,o),
(-18,691,cs),
(-18,859,o),
(28,904,o),
(83,904,cs),
(137,904,o),
(149,839,o),
(149,772,cs),
(149,656,o),
(135,554,o),
(53,554,cs)
);
}
);
width = 0;
}
);
unicode = 71458;
},
{
glyphname = iiSign_ahom;
layers = (
{
anchors = (
{
name = Anchor31;
position = "{381, 490}";
},
{
name = Anchor33;
position = "{291, 490}";
},
{
name = Anchor35;
position = "{331, 490}";
},
{
name = _Anchor27;
position = "{0, 490}";
},
{
name = _Anchor29;
position = "{0, 490}";
},
{
name = _Anchor31;
position = "{0, 490}";
}
);
background = {
shapes = (
{
closed = 1;
nodes = (
(129,490,o),
(231,599,o),
(231,770,cs),
(231,880,o),
(186,968,o),
(98,968,cs),
(-27,968,o),
(-100,807,o),
(-100,701,cs),
(-100,556,o),
(-43,490,o),
(33,490,cs)
);
},
{
closed = 1;
nodes = (
(8,554,o),
(-18,607,o),
(-18,691,cs),
(-18,698,o),
(-18,705,o),
(-17,712,c),
(147,712,l),
(142,623,o),
(120,554,o),
(53,554,cs)
);
},
{
closed = 1;
nodes = (
(-14,765,l),
(-2,873,o),
(37,904,o),
(83,904,cs),
(137,904,o),
(149,839,o),
(149,772,cs),
(149,765,l)
);
}
);
};
layerId = "8FE481F4-9FBE-4592-9CC9-A6C081639EC4";
shapes = (
{
closed = 1;
nodes = (
(129,490,o),
(231,599,o),
(231,770,cs),
(231,880,o),
(186,968,o),
(98,968,cs),
(-27,968,o),
(-100,807,o),
(-100,701,cs),
(-100,556,o),
(-43,490,o),
(33,490,cs)
);
},
{
closed = 1;
nodes = (
(8,554,o),
(-18,607,o),
(-18,691,cs),
(-18,698,o),
(-18,705,o),
(-17,712,c),
(147,712,l),
(142,623,o),
(120,554,o),
(53,554,cs)
);
},
{
closed = 1;
nodes = (
(-14,765,l),
(-2,873,o),
(37,904,o),
(83,904,cs),
(137,904,o),
(149,839,o),
(149,772,cs),
(149,765,l)
);
}
);
width = 0;
}
);
unicode = 71459;
},
{
glyphname = uSign_ahom;
layers = (
{
anchors = (
{
name = _Anchor17;
position = "{-115, 0}";
},
{
name = _Anchor25;
position = "{-140, 0}";
}
);
background = {
shapes = (
{
closed = 1;
nodes = (
(42,-330,o),
(140,-304,o),
(140,-265,cs),
(140,-251,o),
(128,-242,o),
(111,-242,cs),
(106,-242,o),
(101,-243,o),
(97,-245,cs),
(60,-262,o),
(28,-268,o),
(-16,-268,cs),
(-78,-268,o),
(-120,-241,o),
(-120,-130,cs),
(-120,-95,ls),
(-120,-78,o),
(-143,-70,o),
(-165,-70,cs),
(-188,-70,o),
(-210,-78,o),
(-210,-95,cs),
(-210,-134,ls),
(-210,-295,o),
(-99,-330,o),
(-7,-330,cs)
);
}
);
};
layerId = "8FE481F4-9FBE-4592-9CC9-A6C081639EC4";
shapes = (
{
closed = 1;
nodes = (
(42,-330,o),
(140,-304,o),
(140,-265,cs),
(140,-251,o),
(128,-242,o),
(111,-242,cs),
(106,-242,o),
(101,-243,o),
(97,-245,cs),
(60,-262,o),
(28,-268,o),
(-16,-268,cs),
(-78,-268,o),
(-120,-241,o),
(-120,-130,cs),
(-120,-95,ls),
(-120,-78,o),
(-143,-70,o),
(-165,-70,cs),
(-188,-70,o),
(-210,-78,o),
(-210,-95,cs),
(-210,-134,ls),
(-210,-295,o),
(-99,-330,o),
(-7,-330,cs)
);
}
);
width = 0;
}
);
unicode = 71460;
},
{
glyphname = uuSign_ahom;
layers = (
{
anchors = (
{
name = _Anchor17;
position = "{-115, 0}";
},
{
name = _Anchor25;
position = "{-140, 0}";
}
);
background = {
shapes = (
{
closed = 1;
nodes = (
(42,-330,o),
(140,-304,o),
(140,-265,cs),
(140,-251,o),
(128,-242,o),
(111,-242,cs),
(106,-242,o),
(101,-243,o),
(97,-245,cs),
(60,-262,o),
(28,-268,o),
(-16,-268,cs),
(-78,-268,o),
(-120,-241,o),
(-120,-130,cs),
(-120,-95,ls),
(-120,-78,o),
(-143,-70,o),
(-165,-70,cs),
(-188,-70,o),
(-210,-78,o),
(-210,-95,cs),
(-210,-134,ls),
(-210,-295,o),
(-99,-330,o),
(-7,-330,cs)
);
},
{
closed = 1;
nodes = (
(39,-463,o),
(89,-452,o),
(127,-431,cs),
(171,-407,o),
(205,-375,o),
(205,-362,cs),
(205,-348,o),
(184,-319,o),
(167,-319,cs),
(161,-319,o),
(151,-326,o),
(137,-336,cs),
(106,-358,o),
(54,-394,o),
(-23,-394,cs),
(-90,-394,o),
(-144,-370,o),
(-159,-360,cs),
(-164,-357,o),
(-168,-356,o),
(-171,-356,cs),
(-183,-356,o),
(-192,-369,o),
(-192,-381,cs),
(-192,-398,o),
(-111,-463,o),
(-13,-463,cs)
);
}
);
};
layerId = "8FE481F4-9FBE-4592-9CC9-A6C081639EC4";
shapes = (
{
closed = 1;
nodes = (
(42,-330,o),
(140,-304,o),
(140,-265,cs),
(140,-251,o),
(128,-242,o),
(111,-242,cs),
(106,-242,o),
(101,-243,o),
(97,-245,cs),
(60,-262,o),
(28,-268,o),
(-16,-268,cs),
(-78,-268,o),
(-120,-241,o),
(-120,-130,cs),
(-120,-95,ls),
(-120,-78,o),
(-143,-70,o),
(-165,-70,cs),
(-188,-70,o),
(-210,-78,o),
(-210,-95,cs),
(-210,-134,ls),
(-210,-295,o),
(-99,-330,o),
(-7,-330,cs)
);
},
{
closed = 1;
nodes = (
(39,-463,o),
(89,-452,o),
(127,-431,cs),
(171,-407,o),
(205,-375,o),
(205,-362,cs),
(205,-348,o),
(184,-319,o),
(167,-319,cs),
(161,-319,o),
(151,-326,o),
(137,-336,cs),
(106,-358,o),
(54,-394,o),
(-23,-394,cs),
(-90,-394,o),
(-144,-370,o),
(-159,-360,cs),
(-164,-357,o),
(-168,-356,o),
(-171,-356,cs),
(-183,-356,o),
(-192,-369,o),
(-192,-381,cs),
(-192,-398,o),
(-111,-463,o),
(-13,-463,cs)
);
}
);
width = 0;
}
);
unicode = 71461;
},
{
glyphname = eSign_ahom;
layers = (
{
background = {
shapes = (
{
closed = 1;
nodes = (
(314,-14,o),
(325,-5,o),
(335,23,cs),
(640,861,ls),
(642,866,o),
(650,886,o),
(650,900,cs),
(650,921,o),
(633,934,o),
(613,934,cs),
(594,934,o),
(581,925,o),
(571,897,cs),
(399,423,l),
(362,503,o),
(287,560,o),
(193,560,cs),
(78,560,o),
(20,488,o),
(20,409,cs),
(20,345,o),
(58,307,o),
(110,307,cs),
(152,307,o),
(173,333,o),
(173,366,cs),
(173,399,o),
(152,414,o),
(118,425,cs),
(106,429,o),
(97,434,o),
(97,447,cs),
(97,466,o),
(127,493,o),
(188,493,cs),
(273,493,o),
(348,431,o),
(372,255,c),
(369,339,l),
(260,40,ls),
(257,33,o),
(256,26,o),
(256,20,cs),
(256,-5,o),
(275,-14,o),
(295,-14,cs)
);
}
);
};
layerId = "8FE481F4-9FBE-4592-9CC9-A6C081639EC4";
shapes = (
{
closed = 1;
nodes = (
(314,-14,o),
(325,-5,o),
(335,23,cs),
(640,861,l),
(642,866,o),
(650,886,o),
(650,900,cs),
(650,921,o),
(633,934,o),
(613,934,cs),
(594,934,o),
(581,925,o),
(571,897,cs),
(399,423,l),
(362,503,o),
(287,560,o),
(193,560,cs),
(78,560,o),
(20,488,o),
(20,409,cs),
(20,345,o),
(58,307,o),
(110,307,cs),
(152,307,o),
(173,333,o),
(173,366,cs),
(173,399,o),
(152,414,o),
(118,425,cs),
(106,429,o),
(97,434,o),
(97,447,cs),
(97,466,o),
(127,493,o),
(188,493,cs),
(273,493,o),
(348,431,o),
(372,255,c),
(369,339,l),
(260,40,l),
(257,33,o),
(256,26,o),
(256,20,cs),
(256,-5,o),
(275,-14,o),
(295,-14,cs)
);
}
);
width = 630;
}
);
unicode = 71462;
},
{
glyphname = awSign_ahom;
layers = (
{
anchors = (
{
name = Anchor31;
position = "{435, 490}";
},
{
name = Anchor33;
position = "{315, 490}";
},
{
name = Anchor35;
position = "{375, 490}";
},
{
name = _Anchor27;
position = "{0, 490}";
},
{
name = _Anchor29;
position = "{0, 490}";
},
{
name = _Anchor33;
position = "{0, 490}";
}
);
background = {
shapes = (
{
closed = 1;
nodes = (
(45,468,o),
(123,540,o),
(123,632,cs),
(123,657,o),
(119,680,o),
(115,702,cs),
(111,724,o),
(108,744,o),
(108,763,cs),
(108,816,o),
(144,835,o),
(187,835,cs),
(229,835,o),
(260,827,o),
(281,818,cs),
(295,812,o),
(305,809,o),
(314,809,cs),
(327,809,o),
(335,828,o),
(335,844,cs),
(335,873,o),
(253,895,o),
(193,895,cs),
(84,895,o),
(20,827,o),
(20,744,cs),
(20,723,o),
(23,702,o),
(28,681,cs),
(33,660,o),
(36,642,o),
(36,623,cs),
(36,586,o),
(24,565,o),
(-10,542,cs),
(-24,533,o),
(-37,524,o),
(-37,512,cs),
(-37,496,o),
(-23,468,o),
(-2,468,cs)
);
}
);
};
layerId = "8FE481F4-9FBE-4592-9CC9-A6C081639EC4";
shapes = (
{
closed = 1;
nodes = (
(45,468,o),
(123,540,o),
(123,632,cs),
(123,657,o),
(119,680,o),
(115,702,cs),
(111,724,o),
(108,744,o),
(108,763,cs),
(108,816,o),
(144,835,o),
(187,835,cs),
(229,835,o),
(260,827,o),
(281,818,cs),
(295,812,o),
(305,809,o),
(314,809,cs),
(327,809,o),
(335,828,o),
(335,844,cs),
(335,873,o),
(253,895,o),
(193,895,cs),
(84,895,o),
(20,827,o),
(20,744,cs),
(20,723,o),
(23,702,o),
(28,681,cs),
(33,660,o),
(36,642,o),
(36,623,cs),
(36,586,o),
(24,565,o),
(-10,542,cs),
(-24,533,o),
(-37,524,o),
(-37,512,cs),
(-37,496,o),
(-23,468,o),
(-2,468,cs)
);
}
);
width = 0;
}
);
unicode = 71463;
},
{
glyphname = oSign_ahom;
layers = (
{
anchors = (
{
name = _Anchor17;
position = "{-120, 0}";
},
{
name = _Anchor25;
position = "{-190, 20}";
}
);
background = {
shapes = (
{
closed = 1;
nodes = (
(-129,-345,o),
(-50,-284,o),
(-50,-180,cs),
(-50,-99,o),
(-95,-44,o),
(-179,-44,cs),
(-275,-44,o),
(-334,-122,o),
(-334,-207,cs),
(-334,-307,o),
(-273,-345,o),
(-212,-345,cs)
);
},
{
closed = 1;
nodes = (
(-244,-300,o),
(-259,-257,o),
(-259,-195,cs),
(-259,-113,o),
(-227,-89,o),
(-181,-89,cs),
(-136,-89,o),
(-125,-129,o),
(-125,-178,cs),
(-125,-240,o),
(-138,-300,o),
(-198,-300,cs)
);
}
);
};
layerId = "8FE481F4-9FBE-4592-9CC9-A6C081639EC4";
shapes = (
{
closed = 1;
nodes = (
(-129,-345,o),
(-50,-284,o),
(-50,-180,cs),
(-50,-99,o),
(-95,-44,o),
(-179,-44,cs),
(-275,-44,o),
(-334,-122,o),
(-334,-207,cs),
(-334,-307,o),
(-273,-345,o),
(-212,-345,cs)
);
},
{
closed = 1;
nodes = (
(-244,-300,o),
(-259,-257,o),
(-259,-195,cs),
(-259,-113,o),
(-227,-89,o),
(-181,-89,cs),
(-136,-89,o),
(-125,-129,o),
(-125,-178,cs),
(-125,-240,o),
(-138,-300,o),
(-198,-300,cs)
);
}
);
width = 0;
}
);
unicode = 71464;
},
{
glyphname = aiSign_ahom;
layers = (
{
anchors = (
{
name = Anchor31;
position = "{390, 490}";
},
{
name = Anchor33;
position = "{301, 490}";
},
{
name = Anchor35;
position = "{341, 490}";
},
{
name = _Anchor27;
position = "{0, 490}";
},
{
name = _Anchor29;
position = "{0, 490}";
},
{
name = _Anchor35;
position = "{0, 490}";
}
);
background = {
shapes = (
{
closed = 1;
nodes = (
(32,469,o),
(87,505,o),
(154,557,cs),
(229,616,o),
(261,676,o),
(261,747,cs),
(261,830,o),
(202,888,o),
(107,888,cs),
(5,888,o),
(-40,811,o),
(-40,749,cs),
(-40,702,o),
(-16,665,o),
(36,665,cs),
(71,665,o),
(98,684,o),
(98,710,cs),
(98,742,o),
(84,757,o),
(49,765,cs),
(37,768,o),
(31,772,o),
(31,783,cs),
(31,804,o),
(55,824,o),
(103,824,cs),
(147,824,o),
(176,795,o),
(176,739,cs),
(176,677,o),
(120,619,o),
(41,570,cs),
(7,549,o),
(-20,531,o),
(-20,511,cs),
(-20,495,o),
(1,469,o),
(17,469,cs)
);
}
);
};
layerId = "8FE481F4-9FBE-4592-9CC9-A6C081639EC4";
shapes = (
{
closed = 1;
nodes = (
(32,469,o),
(87,505,o),
(154,557,cs),
(229,616,o),
(261,676,o),
(261,747,cs),
(261,830,o),
(202,888,o),
(107,888,cs),
(5,888,o),
(-40,811,o),
(-40,749,cs),
(-40,702,o),
(-16,665,o),
(36,665,cs),
(71,665,o),
(98,684,o),
(98,710,cs),
(98,742,o),
(84,757,o),
(49,765,cs),
(37,768,o),
(31,772,o),
(31,783,cs),
(31,804,o),
(55,824,o),
(103,824,cs),
(147,824,o),
(176,795,o),
(176,739,cs),
(176,677,o),
(120,619,o),
(41,570,cs),
(7,549,o),
(-20,531,o),
(-20,511,cs),
(-20,495,o),
(1,469,o),
(17,469,cs)
);
}
);
width = 0;
}
);
unicode = 71465;
},
{
glyphname = amSign_ahom;
layers = (
{
anchors = (
{
name = Anchor22;
position = "{150, 615}";
},
{
name = Anchor23;
position = "{130, 615}";
},
{
name = _Anchor15;
position = "{-175, 630}";
},
{
name = _Anchor22;
position = "{-175, 615}";
}
);
background = {
shapes = (
{
closed = 1;
nodes = (
(-109,630,o),
(-30,678,o),
(-30,770,cs),
(-30,851,o),
(-85,906,o),
(-169,906,cs),
(-265,906,o),
(-324,843,o),
(-324,766,cs),
(-324,671,o),
(-253,630,o),
(-181,630,cs)
);
},
{
closed = 1;
nodes = (
(-224,675,o),
(-249,708,o),
(-249,770,cs),
(-249,827,o),
(-217,861,o),
(-171,861,cs),
(-126,861,o),
(-105,821,o),
(-105,772,cs),
(-105,732,o),
(-118,675,o),
(-178,675,cs)
);
}
);
};
layerId = "8FE481F4-9FBE-4592-9CC9-A6C081639EC4";
shapes = (
{
closed = 1;
nodes = (
(-109,630,o),
(-30,678,o),
(-30,770,cs),
(-30,851,o),
(-85,906,o),
(-169,906,cs),
(-265,906,o),
(-324,843,o),
(-324,766,cs),
(-324,671,o),
(-253,630,o),
(-181,630,cs)
);
},
{
closed = 1;
nodes = (
(-224,675,o),
(-249,708,o),
(-249,770,cs),
(-249,827,o),
(-217,861,o),
(-171,861,cs),
(-126,861,o),
(-105,821,o),
(-105,772,cs),
(-105,732,o),
(-118,675,o),
(-178,675,cs)
);
}
);
width = 0;
}
);
unicode = 71466;
},
{
glyphname = virama_ahom;
layers = (
{
anchors = (
{
name = Anchor23;
position = "{160, 585}";
},
{
name = _Anchor15;
position = "{-260, 630}";
},
{
name = _Anchor23;
position = "{-170, 615}";
}
);
background = {
shapes = (
{
closed = 1;
nodes = (
(-185,853,o),
(-294,781,o),
(-294,673,cs),
(-294,641,o),
(-279,634,o),
(-266,634,cs),
(-242,634,o),
(-223,666,o),
(-195,706,cs),
(-166,747,o),
(-119,791,o),
(-55,791,cs),
(-33,791,o),
(-6,788,o),
(18,776,cs),
(32,769,o),
(41,765,o),
(49,765,cs),
(63,765,o),
(75,775,o),
(75,790,cs),
(75,828,o),
(-2,853,o),
(-72,853,cs)
);
}
);
};
layerId = "8FE481F4-9FBE-4592-9CC9-A6C081639EC4";
shapes = (
{
closed = 1;
nodes = (
(-185,853,o),
(-294,781,o),
(-294,673,cs),
(-294,641,o),
(-279,634,o),
(-266,634,cs),
(-242,634,o),
(-223,666,o),
(-195,706,cs),
(-166,747,o),
(-119,791,o),
(-55,791,cs),
(-33,791,o),
(-6,788,o),
(18,776,cs),
(32,769,o),
(41,765,o),
(49,765,cs),
(63,765,o),
(75,775,o),
(75,790,cs),
(75,828,o),
(-2,853,o),
(-72,853,cs)
);
}
);
width = 0;
}
);
unicode = 71467;
},
{
glyphname = zero_ahom;
layers = (
{
background = {
shapes = (
{
closed = 1;
nodes = (
(405,-12,o),
(543,161,o),
(543,344,cs),
(543,463,o),
(489,560,o),
(368,560,cs),
(221,560,o),
(80,390,o),
(80,204,cs),
(80,85,o),
(134,-12,o),
(255,-12,cs)
);
},
{
closed = 1;
nodes = (
(214,65,o),
(174,122,o),
(174,224,cs),
(174,378,o),
(217,480,o),
(332,480,cs),
(409,480,o),
(449,426,o),
(449,324,cs),
(449,186,o),
(411,65,o),
(284,65,cs)
);
}
);
};
layerId = "8FE481F4-9FBE-4592-9CC9-A6C081639EC4";
shapes = (
{
closed = 1;
nodes = (
(405,-12,o),
(543,161,o),
(543,344,cs),
(543,463,o),
(489,560,o),
(368,560,cs),
(221,560,o),
(80,390,o),
(80,204,cs),
(80,85,o),
(134,-12,o),
(255,-12,cs)
);
},
{
closed = 1;
nodes = (
(214,65,o),
(174,122,o),
(174,224,cs),
(174,378,o),
(217,480,o),
(332,480,cs),
(409,480,o),
(449,426,o),
(449,324,cs),
(449,186,o),
(411,65,o),
(284,65,cs)
);
}
);
width = 623;
}
);
unicode = 71472;
},
{
glyphname = one_ahom;
layers = (
{
background = {
shapes = (
{
closed = 1;
nodes = (
(644,-45,o),
(662,-8,o),
(662,16,cs),
(662,28,o),
(657,38,o),
(646,38,cs),
(604,39,o),
(598,65,o),
(598,132,cs),
(598,276,ls),
(598,328,o),
(554,431,o),
(447,431,cs),
(412,431,o),
(394,394,o),
(394,370,cs),
(394,358,o),
(399,348,o),
(410,348,cs),
(427,348,ls),
(502,348,o),
(508,268,o),
(508,254,cs),
(508,86,ls),
(508,37,o),
(519,-45,o),
(609,-45,cs)
);
},
{
closed = 1;
nodes = (
(135,43,o),
(231,124,o),
(231,202,cs),
(231,266,o),
(194,350,o),
(117,350,cs),
(96,350,o),
(71,313,o),
(71,289,cs),
(71,277,o),
(77,271,o),
(87,267,cs),
(122,254,o),
(147,226,o),
(147,199,cs),
(147,156,o),
(106,134,o),
(70,118,cs),
(43,106,o),
(20,94,o),
(20,77,cs),
(20,44,o),
(46,43,o),
(61,43,cs)
);
},
{
closed = 1;
nodes = (
(345,5,o),
(356,19,o),
(366,33,cs),
(392,69,o),
(439,135,o),
(439,192,cs),
(439,241,o),
(400,340,o),
(315,340,cs),
(294,340,o),
(269,303,o),
(269,279,cs),
(269,267,o),
(275,261,o),
(285,257,cs),
(341,236,o),
(349,195,o),
(349,170,cs),
(349,144,o),
(334,117,o),
(318,91,cs),
(304,69,o),
(292,48,o),
(292,30,cs),
(292,11,o),
(307,5,o),
(318,5,cs)
);
},
{
closed = 1;
nodes = (
(219,403,o),
(288,432,o),
(320,451,cs),
(403,501,o),
(480,578,o),
(480,661,cs),
(480,696,o),
(465,706,o),
(450,706,cs),
(443,706,o),
(429,700,o),
(420,676,cs),
(388,591,o),
(280,506,o),
(179,495,cs),
(158,493,o),
(149,483,o),
(149,469,cs),
(149,453,o),
(154,403,o),
(177,403,cs)
);
}
);
};
layerId = "8FE481F4-9FBE-4592-9CC9-A6C081639EC4";
shapes = (
{
closed = 1;
nodes = (
(644,-45,o),
(662,-8,o),
(662,16,cs),
(662,28,o),
(657,38,o),
(646,38,cs),
(604,39,o),
(598,65,o),
(598,132,cs),
(598,276,ls),
(598,328,o),
(554,431,o),
(447,431,cs),
(412,431,o),
(394,394,o),
(394,370,cs),
(394,358,o),
(399,348,o),
(410,348,cs),
(427,348,ls),
(502,348,o),
(508,268,o),
(508,254,cs),
(508,86,ls),
(508,37,o),
(519,-45,o),
(609,-45,cs)
);
},
{
closed = 1;
nodes = (
(135,43,o),
(231,124,o),
(231,202,cs),
(231,266,o),
(194,350,o),
(117,350,cs),
(96,350,o),
(71,313,o),
(71,289,cs),
(71,277,o),
(77,271,o),
(87,267,cs),
(122,254,o),
(147,226,o),
(147,199,cs),
(147,156,o),
(106,134,o),
(70,118,cs),
(43,106,o),
(20,94,o),
(20,77,cs),
(20,44,o),
(46,43,o),
(61,43,cs)
);
},
{
closed = 1;
nodes = (
(345,5,o),
(356,19,o),
(366,33,cs),
(392,69,o),
(439,135,o),
(439,192,cs),
(439,241,o),
(400,340,o),
(315,340,cs),
(294,340,o),
(269,303,o),
(269,279,cs),
(269,267,o),
(275,261,o),
(285,257,cs),
(341,236,o),
(349,195,o),
(349,170,cs),
(349,144,o),
(334,117,o),
(318,91,cs),
(304,69,o),
(292,48,o),
(292,30,cs),
(292,11,o),
(307,5,o),
(318,5,cs)
);
},
{
closed = 1;
nodes = (
(219,403,o),
(288,432,o),
(320,451,cs),
(403,501,o),
(480,578,o),
(480,661,cs),
(480,696,o),
(465,706,o),
(450,706,cs),
(443,706,o),
(429,700,o),
(420,676,cs),
(388,591,o),
(280,506,o),
(179,495,cs),
(158,493,o),
(149,483,o),
(149,469,cs),
(149,453,o),
(154,403,o),
(177,403,cs)
);
}
);
width = 682;
}
);
unicode = 71473;
},
{
glyphname = four_ahom;
layers = (
{
background = {
shapes = (
{
closed = 1;
nodes = (
(1154,490,o),
(1256,599,o),
(1256,770,cs),
(1256,880,o),
(1211,968,o),
(1123,968,cs),
(998,968,o),
(925,807,o),
(925,701,cs),
(925,556,o),
(982,490,o),
(1058,490,cs)
);
},
{
closed = 1;
nodes = (
(1033,554,o),
(1007,607,o),
(1007,691,cs),
(1007,698,o),
(1007,705,o),
(1008,712,c),
(1172,712,l),
(1167,623,o),
(1145,554,o),
(1078,554,cs)
);
},
{
closed = 1;
nodes = (
(1011,765,l),
(1023,873,o),
(1062,904,o),
(1108,904,cs),
(1162,904,o),
(1174,839,o),
(1174,772,cs),
(1174,765,l)
);
},
{
alignment = -1;
ref = sa_ahom;
}
);
};
layerId = "8FE481F4-9FBE-4592-9CC9-A6C081639EC4";
shapes = (
{
closed = 1;
nodes = (
(1154,490,o),
(1256,599,o),
(1256,770,cs),
(1256,880,o),
(1211,968,o),
(1123,968,cs),
(998,968,o),
(925,807,o),
(925,701,cs),
(925,556,o),
(982,490,o),
(1058,490,cs)
);
},
{
closed = 1;
nodes = (
(1033,554,o),
(1007,607,o),
(1007,691,cs),
(1007,698,o),
(1007,705,o),
(1008,712,c),
(1172,712,l),
(1167,623,o),
(1145,554,o),
(1078,554,cs)
);
},
{
closed = 1;
nodes = (
(1011,765,l),
(1023,873,o),
(1062,904,o),
(1108,904,cs),
(1162,904,o),
(1174,839,o),
(1174,772,cs),
(1174,765,l)
);
},
{
alignment = -1;
ref = sa_ahom;
}
);
width = 1256;
}
);
unicode = 71476;
},
{
glyphname = six_ahom;
layers = (
{
background = {
shapes = (
{
closed = 1;
nodes = (
(600,-222,o),
(743,-128,o),
(743,59,cs),
(743,172,o),
(694,207,o),
(637,207,cs),
(591,207,o),
(540,183,o),
(507,166,cs),
(490,157,o),
(478,152,o),
(473,152,cs),
(464,152,o),
(454,160,o),
(454,183,cs),
(454,197,l),
(562,381,o),
(635,381,o),
(654,381,cs),
(666,381,o),
(679,378,o),
(692,375,cs),
(703,372,o),
(713,370,o),
(722,370,cs),
(748,370,o),
(784,386,o),
(784,431,cs),
(784,462,o),
(758,477,o),
(722,477,cs),
(670,477,o),
(575,445,o),
(454,285,c),
(454,315,ls),
(454,367,o),
(450,470,o),
(343,470,cs),
(308,470,o),
(290,433,o),
(290,409,cs),
(290,397,o),
(295,387,o),
(306,387,cs),
(313,387,ls),
(361,387,o),
(364,339,o),
(364,293,cs),
(364,152,ls),
(364,93,o),
(392,80,o),
(417,80,cs),
(450,80,o),
(475,93,o),
(502,107,cs),
(528,120,o),
(554,133,o),
(589,133,cs),
(619,133,o),
(649,116,o),
(649,47,cs),
(649,-100,o),
(516,-145,o),
(447,-145,cs),
(245,-145,o),
(174,27,o),
(174,262,cs),
(174,606,o),
(361,733,o),
(570,733,cs),
(685,733,o),
(749,713,o),
(784,701,cs),
(798,696,o),
(810,693,o),
(819,693,cs),
(834,693,o),
(848,702,o),
(848,720,cs),
(848,736,o),
(841,745,o),
(826,752,cs),
(768,778,o),
(684,800,o),
(583,800,cs),
(281,800,o),
(80,552,o),
(80,257,cs),
(80,-20,o),
(218,-222,o),
(435,-222,cs)
);
}
);
};
layerId = "8FE481F4-9FBE-4592-9CC9-A6C081639EC4";
shapes = (
{
closed = 1;
nodes = (
(600,-222,o),
(743,-128,o),
(743,59,cs),
(743,172,o),
(694,207,o),
(637,207,cs),
(591,207,o),
(540,183,o),
(507,166,cs),
(490,157,o),
(478,152,o),
(473,152,cs),
(464,152,o),
(454,160,o),
(454,183,cs),
(454,197,l),
(562,381,o),
(635,381,o),
(654,381,cs),
(666,381,o),
(679,378,o),
(692,375,c),
(703,372,o),
(713,370,o),
(722,370,cs),
(748,370,o),
(784,386,o),
(784,431,cs),
(784,462,o),
(758,477,o),
(722,477,cs),
(670,477,o),
(575,445,o),
(454,285,c),
(454,315,ls),
(454,367,o),
(450,470,o),
(343,470,cs),
(308,470,o),
(290,433,o),
(290,409,cs),
(290,397,o),
(295,387,o),
(306,387,cs),
(313,387,ls),
(361,387,o),
(364,339,o),
(364,293,cs),
(364,152,ls),
(364,93,o),
(392,80,o),
(417,80,cs),
(450,80,o),
(475,93,o),
(502,107,cs),
(528,120,o),
(554,133,o),
(589,133,cs),
(619,133,o),
(649,116,o),
(649,47,cs),
(649,-100,o),
(516,-145,o),
(447,-145,cs),
(245,-145,o),
(174,27,o),
(174,262,cs),
(174,606,o),
(361,733,o),
(570,733,cs),
(685,733,o),
(749,713,o),
(784,701,cs),
(798,696,o),
(810,693,o),
(819,693,cs),
(834,693,o),
(848,702,o),
(848,720,cs),
(848,736,o),
(841,745,o),
(826,752,cs),
(768,778,o),
(684,800,o),
(583,800,cs),
(281,800,o),
(80,552,o),
(80,257,cs),
(80,-20,o),
(218,-222,o),
(435,-222,cs)
);
}
);
width = 848;
}
);
unicode = 71478;
},
{
glyphname = seven_ahom;
layers = (
{
background = {
shapes = (
{
closed = 1;
nodes = (
(964,-150,o),
(976,-132,o),
(976,-120,cs),
(976,-109,o),
(960,-97,o),
(923,-88,cs),
(880,-77,o),
(837,-51,o),
(837,60,cs),
(837,240,ls),
(837,391,o),
(741,468,o),
(619,468,cs),
(611,468,o),
(603,467,o),
(595,466,c),
(557,527,o),
(491,560,o),
(411,560,cs),
(260,560,o),
(122,420,o),
(38,260,cs),
(33,250,o),
(30,241,o),
(30,235,cs),
(30,224,o),
(45,210,o),
(63,210,cs),
(73,210,o),
(84,215,o),
(91,228,cs),
(189,414,o),
(320,478,o),
(397,478,cs),
(440,478,o),
(478,467,o),
(504,439,c),
(405,393,o),
(314,296,o),
(314,194,cs),
(314,124,o),
(358,83,o),
(429,83,cs),
(527,83,o),
(629,167,o),
(629,332,cs),
(629,351,o),
(628,369,o),
(625,385,c),
(706,380,o),
(747,341,o),
(747,237,cs),
(747,56,ls),
(747,-105,o),
(858,-150,o),
(916,-150,cs)
);
},
{
closed = 1;
nodes = (
(404,142,o),
(372,150,o),
(372,189,cs),
(372,279,o),
(452,347,o),
(535,374,c),
(537,360,o),
(539,345,o),
(539,329,cs),
(539,168,o),
(461,142,o),
(422,142,cs)
);
}
);
};
layerId = "8FE481F4-9FBE-4592-9CC9-A6C081639EC4";
shapes = (
{
closed = 1;
nodes = (
(964,-150,o),
(976,-132,o),
(976,-120,cs),
(976,-109,o),
(960,-97,o),
(923,-88,cs),
(880,-77,o),
(837,-51,o),
(837,60,cs),
(837,240,ls),
(837,391,o),
(741,468,o),
(619,468,cs),
(611,468,o),
(603,467,o),
(595,466,c),
(557,527,o),
(491,560,o),
(411,560,cs),
(260,560,o),
(122,420,o),
(38,260,cs),
(33,250,o),
(30,241,o),
(30,235,cs),
(30,224,o),
(45,210,o),
(63,210,cs),
(73,210,o),
(84,215,o),
(91,228,cs),
(189,414,o),
(320,478,o),
(397,478,cs),
(440,478,o),
(478,467,o),
(504,439,c),
(405,393,o),
(314,296,o),
(314,194,cs),
(314,124,o),
(358,83,o),
(429,83,cs),
(527,83,o),
(629,167,o),
(629,332,cs),
(629,351,o),
(628,369,o),
(625,385,c),
(706,380,o),
(747,341,o),
(747,237,cs),
(747,56,ls),
(747,-105,o),
(858,-150,o),
(916,-150,cs)
);
},
{
closed = 1;
nodes = (
(404,142,o),
(372,150,o),
(372,189,cs),
(372,279,o),
(452,347,o),
(535,374,c),
(537,360,o),
(539,345,o),
(539,329,cs),
(539,168,o),
(461,142,o),
(422,142,cs)
);
}
);
width = 996;
}
);
unicode = 71479;
},
{
glyphname = eight_ahom;
layers = (
{
background = {
shapes = (
{
closed = 1;
nodes = (
(1264,-150,o),
(1276,-132,o),
(1276,-120,cs),
(1276,-109,o),
(1260,-97,o),
(1223,-88,cs),
(1180,-77,o),
(1137,-51,o),
(1137,60,cs),
(1137,240,ls),
(1137,388,o),
(1046,468,o),
(919,468,cs),
(909,468,o),
(898,467,o),
(888,466,c),
(854,527,o),
(792,560,o),
(711,560,cs),
(661,560,o),
(605,543,o),
(550,513,c),
(515,544,o),
(467,560,o),
(411,560,cs),
(260,560,o),
(125,420,o),
(38,260,cs),
(32,250,o),
(30,241,o),
(30,235,cs),
(30,224,o),
(45,210,o),
(63,210,cs),
(73,210,o),
(84,215,o),
(91,228,cs),
(189,414,o),
(320,478,o),
(397,478,cs),
(426,478,o),
(452,473,o),
(473,461,c),
(395,395,o),
(334,311,o),
(334,203,cs),
(334,132,o),
(373,83,o),
(445,83,cs),
(540,83,o),
(619,167,o),
(619,332,cs),
(619,380,o),
(610,421,o),
(594,455,c),
(630,470,o),
(663,478,o),
(685,478,cs),
(742,478,o),
(780,466,o),
(803,437,c),
(712,390,o),
(634,301,o),
(634,200,cs),
(634,127,o),
(674,83,o),
(745,83,cs),
(839,83,o),
(919,167,o),
(919,332,cs),
(919,351,o),
(917,369,o),
(915,386,c),
(1002,383,o),
(1047,346,o),
(1047,237,cs),
(1047,56,ls),
(1047,-105,o),
(1158,-150,o),
(1216,-150,cs)
);
},
{
closed = 1;
nodes = (
(413,142,o),
(392,162,o),
(392,203,cs),
(392,291,o),
(449,363,o),
(515,411,c),
(524,390,o),
(529,363,o),
(529,329,cs),
(529,184,o),
(487,142,o),
(444,142,cs)
);
},
{
closed = 1;
nodes = (
(711,142,o),
(692,162,o),
(692,200,cs),
(692,279,o),
(756,341,o),
(826,370,c),
(828,357,o),
(829,344,o),
(829,329,cs),
(829,185,o),
(787,142,o),
(742,142,cs)
);
}
);
};
layerId = "8FE481F4-9FBE-4592-9CC9-A6C081639EC4";
shapes = (
{
closed = 1;
nodes = (
(1264,-150,o),
(1276,-132,o),
(1276,-120,cs),
(1276,-109,o),
(1260,-97,o),
(1223,-88,cs),
(1180,-77,o),
(1137,-51,o),
(1137,60,cs),
(1137,240,ls),
(1137,388,o),
(1046,468,o),
(919,468,cs),
(909,468,o),
(898,467,o),
(888,466,c),
(854,527,o),
(792,560,o),
(711,560,cs),
(661,560,o),
(605,543,o),
(550,513,c),
(515,544,o),
(467,560,o),
(411,560,cs),
(260,560,o),
(125,420,o),
(38,260,c),
(32,250,o),
(30,241,o),
(30,235,cs),
(30,224,o),
(45,210,o),
(63,210,cs),
(73,210,o),
(84,215,o),
(91,228,cs),
(189,414,o),
(320,478,o),
(397,478,cs),
(426,478,o),
(452,473,o),
(473,461,c),
(395,395,o),
(334,311,o),
(334,203,cs),
(334,132,o),
(373,83,o),
(445,83,cs),
(540,83,o),
(619,167,o),
(619,332,cs),
(619,380,o),
(610,421,o),
(594,455,c),
(630,470,o),
(663,478,o),
(685,478,cs),
(742,478,o),
(780,466,o),
(803,437,c),
(712,390,o),
(634,301,o),
(634,200,cs),
(634,127,o),
(674,83,o),
(745,83,cs),
(839,83,o),
(919,167,o),
(919,332,cs),
(919,351,o),
(917,369,o),
(915,386,c),
(1002,383,o),
(1047,346,o),
(1047,237,cs),
(1047,56,ls),
(1047,-105,o),
(1158,-150,o),
(1216,-150,cs)
);
},
{
closed = 1;
nodes = (
(413,142,o),
(392,162,o),
(392,203,cs),
(392,291,o),
(449,363,o),
(515,411,c),
(524,390,o),
(529,363,o),
(529,329,cs),
(529,184,o),
(487,142,o),
(444,142,cs)
);
},
{
closed = 1;
nodes = (
(711,142,o),
(692,162,o),
(692,200,cs),
(692,279,o),
(756,341,o),
(826,370,c),
(828,357,o),
(829,344,o),
(829,329,cs),
(829,185,o),
(787,142,o),
(742,142,cs)
);
}
);
width = 1296;
}
);
unicode = 71480;
},
{
glyphname = nine_ahom;
layers = (
{
background = {
shapes = (
{
closed = 1;
nodes = (
(714,-222,o),
(813,-159,o),
(846,-131,cs),
(858,-121,o),
(863,-113,o),
(863,-101,cs),
(863,-85,o),
(850,-70,o),
(834,-70,cs),
(821,-70,o),
(806,-81,o),
(791,-92,cs),
(749,-122,o),
(662,-155,o),
(560,-155,cs),
(274,-155,o),
(174,27,o),
(174,262,cs),
(174,606,o),
(321,733,o),
(517,733,cs),
(689,733,o),
(750,629,o),
(750,518,cs),
(750,373,o),
(648,312,o),
(484,311,c),
(484,315,ls),
(484,367,o),
(480,470,o),
(373,470,cs),
(342,470,o),
(320,446,o),
(320,409,cs),
(320,397,o),
(325,387,o),
(336,387,cs),
(343,387,ls),
(391,387,o),
(394,339,o),
(394,293,cs),
(394,135,ls),
(394,48,o),
(444,-14,o),
(539,-14,cs),
(710,-14,o),
(793,92,o),
(814,122,cs),
(817,126,o),
(818,130,o),
(818,134,cs),
(818,148,o),
(803,159,o),
(791,159,cs),
(785,159,o),
(779,157,o),
(775,151,cs),
(722,75,o),
(615,38,o),
(562,38,cs),
(499,38,o),
(484,79,o),
(484,126,cs),
(484,247,l),
(698,253,o),
(844,336,o),
(844,518,cs),
(844,675,o),
(719,800,o),
(527,800,cs),
(261,800,o),
(80,563,o),
(80,268,cs),
(80,-9,o),
(274,-222,o),
(547,-222,cs)
);
}
);
};
layerId = "8FE481F4-9FBE-4592-9CC9-A6C081639EC4";
shapes = (
{
closed = 1;
nodes = (
(714,-222,o),
(813,-159,o),
(846,-131,cs),
(858,-121,o),
(863,-113,o),
(863,-101,cs),
(863,-85,o),
(850,-70,o),
(834,-70,cs),
(821,-70,o),
(806,-81,o),
(791,-92,cs),
(749,-122,o),
(662,-155,o),
(560,-155,cs),
(274,-155,o),
(174,27,o),
(174,262,cs),
(174,606,o),
(321,733,o),
(517,733,cs),
(689,733,o),
(750,629,o),
(750,518,cs),
(750,373,o),
(648,312,o),
(484,311,c),
(484,315,ls),
(484,367,o),
(480,470,o),
(373,470,cs),
(342,470,o),
(320,446,o),
(320,409,cs),
(320,397,o),
(325,387,o),
(336,387,cs),
(343,387,ls),
(391,387,o),
(394,339,o),
(394,293,cs),
(394,135,ls),
(394,48,o),
(444,-14,o),
(539,-14,cs),
(710,-14,o),
(793,92,o),
(814,122,c),
(817,126,o),
(818,130,o),
(818,134,cs),
(818,148,o),
(803,159,o),
(791,159,cs),
(785,159,o),
(779,157,o),
(775,151,cs),
(722,75,o),
(615,38,o),
(562,38,cs),
(499,38,o),
(484,79,o),
(484,126,cs),
(484,247,l),
(698,253,o),
(844,336,o),
(844,518,cs),
(844,675,o),
(719,800,o),
(527,800,cs),
(261,800,o),
(80,563,o),
(80,268,cs),
(80,-9,o),
(274,-222,o),
(547,-222,cs)
);
}
);
width = 942;
}
);
unicode = 71481;
},
{
glyphname = smallSectionSign_ahom;
layers = (
{
background = {
shapes = (
{
closed = 1;
nodes = (
(194,-10,o),
(214,-2,o),
(214,15,cs),
(214,385,ls),
(214,460,o),
(201,560,o),
(148,560,cs),
(115,560,o),
(60,513,o),
(60,489,cs),
(60,475,o),
(72,463,o),
(84,453,cs),
(89,449,o),
(94,444,o),
(100,438,cs),
(113,424,o),
(124,405,o),
(124,345,cs),
(124,15,ls),
(124,-4,o),
(149,-10,o),
(170,-10,cs)
);
}
);
};
layerId = "8FE481F4-9FBE-4592-9CC9-A6C081639EC4";
shapes = (
{
closed = 1;
nodes = (
(194,-10,o),
(214,-2,o),
(214,15,cs),
(214,385,ls),
(214,460,o),
(201,560,o),
(148,560,cs),
(115,560,o),
(60,513,o),
(60,489,cs),
(60,475,o),
(72,463,o),
(84,453,cs),
(89,449,o),
(94,444,o),
(100,438,cs),
(113,424,o),
(124,405,o),
(124,345,cs),
(124,15,ls),
(124,-4,o),
(149,-10,o),
(170,-10,cs)
);
}
);
width = 334;
}
);
unicode = 71484;
},
{
glyphname = rulaiSign_ahom;
layers = (
{
background = {
shapes = (
{
closed = 1;
nodes = (
(618,-175,o),
(858,57,o),
(858,364,cs),
(858,487,o),
(785,560,o),
(679,560,cs),
(580,560,o),
(498,481,o),
(454,390,c),
(436,480,o),
(373,560,o),
(301,560,cs),
(280,560,o),
(255,523,o),
(255,499,cs),
(255,487,o),
(261,481,o),
(271,477,cs),
(332,453,o),
(369,411,o),
(369,336,cs),
(369,195,ls),
(369,91,o),
(396,-14,o),
(535,-14,cs),
(578,-14,o),
(643,5,o),
(696,49,c),
(701,66,l),
(627,-52,o),
(538,-98,o),
(436,-98,cs),
(248,-98,o),
(174,97,o),
(174,311,cs),
(174,676,o),
(341,783,o),
(550,783,cs),
(678,783,o),
(748,763,o),
(785,750,cs),
(799,745,o),
(810,743,o),
(820,743,cs),
(833,743,o),
(848,752,o),
(848,770,cs),
(848,786,o),
(839,796,o),
(824,803,cs),
(766,829,o),
(665,850,o),
(552,850,cs),
(302,850,o),
(80,700,o),
(80,311,cs),
(80,50,o),
(183,-175,o),
(441,-175,cs)
);
},
{
closed = 1;
nodes = (
(480,48,o),
(459,82,o),
(459,175,cs),
(459,268,l),
(500,462,o),
(620,480,o),
(651,480,cs),
(732,480,o),
(764,405,o),
(764,352,cs),
(764,181,o),
(670,48,o),
(544,48,cs)
);
}
);
};
layerId = "8FE481F4-9FBE-4592-9CC9-A6C081639EC4";
shapes = (
{
closed = 1;
nodes = (
(618,-175,o),
(858,57,o),
(858,364,cs),
(858,487,o),
(785,560,o),
(679,560,cs),
(580,560,o),
(498,481,o),
(454,390,c),
(436,480,o),
(373,560,o),
(301,560,cs),
(280,560,o),
(255,523,o),
(255,499,cs),
(255,487,o),
(261,481,o),
(271,477,cs),
(332,453,o),
(369,411,o),
(369,336,cs),
(369,195,ls),
(369,91,o),
(396,-14,o),
(535,-14,cs),
(578,-14,o),
(643,5,o),
(696,49,c),
(701,66,l),
(627,-52,o),
(538,-98,o),
(436,-98,cs),
(248,-98,o),
(174,97,o),
(174,311,cs),
(174,676,o),
(341,783,o),
(550,783,cs),
(678,783,o),
(748,763,o),
(785,750,cs),
(799,745,o),
(810,743,o),
(820,743,cs),
(833,743,o),
(848,752,o),
(848,770,cs),
(848,786,o),
(839,796,o),
(824,803,cs),
(766,829,o),
(665,850,o),
(552,850,cs),
(302,850,o),
(80,700,o),
(80,311,cs),
(80,50,o),
(183,-175,o),
(441,-175,cs)
);
},
{
closed = 1;
nodes = (
(480,48,o),
(459,82,o),
(459,175,cs),
(459,268,l),
(500,462,o),
(620,480,o),
(651,480,cs),
(732,480,o),
(764,405,o),
(764,352,cs),
(764,181,o),
(670,48,o),
(544,48,cs)
);
}
);
width = 938;
}
);
unicode = 71486;
},
{
glyphname = viSymbol_ahom;
layers = (
{
background = {
shapes = (
{
closed = 1;
nodes = (
(532,-363,o),
(552,-352,o),
(552,-325,cs),
(552,-319,o),
(550,-315,o),
(547,-312,cs),
(546,-311,o),
(540,-309,o),
(532,-307,cs),
(492,-297,o),
(394,-263,o),
(394,-200,cs),
(394,-159,o),
(420,-134,o),
(477,-96,cs),
(528,-62,o),
(560,-29,o),
(566,0,c),
(572,-6,o),
(574,-17,o),
(574,-24,cs),
(574,-43,o),
(570,-63,o),
(566,-82,cs),
(562,-103,o),
(558,-124,o),
(558,-145,cs),
(558,-240,o),
(620,-296,o),
(731,-296,cs),
(791,-296,o),
(873,-274,o),
(873,-252,cs),
(873,-232,o),
(865,-210,o),
(852,-210,cs),
(844,-210,o),
(834,-213,o),
(821,-218,cs),
(799,-226,o),
(769,-236,o),
(725,-236,cs),
(682,-236,o),
(636,-212,o),
(636,-159,cs),
(636,-140,o),
(638,-119,o),
(641,-98,cs),
(644,-76,o),
(646,-53,o),
(646,-32,cs),
(646,15,o),
(627,53,o),
(604,80,c),
(604,438,ls),
(604,478,o),
(599,495,o),
(580,520,c),
(582,507,l),
(616,525,o),
(646,570,o),
(646,631,cs),
(646,653,o),
(644,676,o),
(641,698,cs),
(638,719,o),
(636,740,o),
(636,758,cs),
(636,805,o),
(668,835,o),
(731,835,cs),
(775,835,o),
(800,827,o),
(822,818,cs),
(834,813,o),
(844,809,o),
(852,809,cs),
(865,809,o),
(873,824,o),
(873,839,cs),
(873,863,o),
(822,895,o),
(731,895,cs),
(633,895,o),
(558,844,o),
(558,744,cs),
(558,722,o),
(562,701,o),
(566,680,cs),
(570,661,o),
(574,642,o),
(574,623,cs),
(574,580,o),
(553,553,o),
(514,546,c),
(527,532,l),
(528,539,o),
(528,545,o),
(528,551,cs),
(528,617,o),
(494,655,o),
(450,693,cs),
(406,731,o),
(384,755,o),
(384,792,cs),
(384,855,o),
(460,883,o),
(506,900,cs),
(530,909,o),
(542,914,o),
(542,930,cs),
(542,953,o),
(522,962,o),
(508,962,cs),
(503,962,o),
(499,962,o),
(494,961,cs),
(382,939,o),
(306,867,o),
(306,790,cs),
(306,722,o),
(351,680,o),
(393,642,cs),
(437,602,o),
(458,573,o),
(458,536,cs),
(458,498,o),
(437,461,o),
(405,411,cs),
(209,103,l),
(224,98,l),
(224,314,ls),
(224,472,o),
(148,560,o),
(66,560,cs),
(45,560,o),
(23,533,o),
(23,509,cs),
(23,490,o),
(32,482,o),
(51,474,cs),
(112,448,o),
(134,408,o),
(134,299,cs),
(134,83,ls),
(134,14,o),
(159,0,o),
(180,0,cs),
(201,0,o),
(216,8,o),
(236,40,cs),
(432,350,ls),
(478,423,o),
(492,445,o),
(502,445,cs),
(514,445,o),
(514,418,o),
(514,374,cs),
(514,84,ls),
(514,32,o),
(485,-5,o),
(426,-46,cs),
(372,-83,o),
(316,-125,o),
(316,-194,cs),
(316,-268,o),
(383,-336,o),
(504,-362,cs),
(509,-363,o),
(513,-363,o),
(518,-363,cs)
);
}
);
};
layerId = "8FE481F4-9FBE-4592-9CC9-A6C081639EC4";
shapes = (
{
closed = 1;
nodes = (
(532,-363,o),
(552,-352,o),
(552,-325,cs),
(552,-319,o),
(550,-315,o),
(547,-312,cs),
(546,-311,o),
(540,-309,o),
(532,-307,cs),
(492,-297,o),
(394,-263,o),
(394,-200,cs),
(394,-159,o),
(420,-134,o),
(477,-96,cs),
(528,-62,o),
(560,-29,o),
(566,0,c),
(572,-6,o),
(574,-17,o),
(574,-24,cs),
(574,-43,o),
(570,-63,o),
(566,-82,cs),
(562,-103,o),
(558,-124,o),
(558,-145,cs),
(558,-240,o),
(620,-296,o),
(731,-296,cs),
(791,-296,o),
(873,-274,o),
(873,-252,cs),
(873,-232,o),
(865,-210,o),
(852,-210,cs),
(844,-210,o),
(834,-213,o),
(821,-218,cs),
(799,-226,o),
(769,-236,o),
(725,-236,cs),
(682,-236,o),
(636,-212,o),
(636,-159,cs),
(636,-140,o),
(638,-119,o),
(641,-98,cs),
(644,-76,o),
(646,-53,o),
(646,-32,cs),
(646,15,o),
(627,53,o),
(604,80,c),
(604,438,ls),
(604,478,o),
(599,495,o),
(580,520,c),
(582,507,l),
(616,525,o),
(646,570,o),
(646,631,cs),
(646,653,o),
(644,676,o),
(641,698,cs),
(638,719,o),
(636,740,o),
(636,758,cs),
(636,805,o),
(668,835,o),
(731,835,cs),
(775,835,o),
(800,827,o),
(822,818,cs),
(834,813,o),
(844,809,o),
(852,809,cs),
(865,809,o),
(873,824,o),
(873,839,cs),
(873,863,o),
(822,895,o),
(731,895,cs),
(633,895,o),
(558,844,o),
(558,744,cs),
(558,722,o),
(562,701,o),
(566,680,cs),
(570,661,o),
(574,642,o),
(574,623,cs),
(574,580,o),
(553,553,o),
(514,546,c),
(527,532,l),
(528,539,o),
(528,545,o),
(528,551,cs),
(528,617,o),
(494,655,o),
(450,693,cs),
(406,731,o),
(384,755,o),
(384,792,cs),
(384,855,o),
(460,883,o),
(506,900,cs),
(530,909,o),
(542,914,o),
(542,930,cs),
(542,953,o),
(522,962,o),
(508,962,cs),
(503,962,o),
(499,962,o),
(494,961,cs),
(382,939,o),
(306,867,o),
(306,790,cs),
(306,722,o),
(351,680,o),
(393,642,cs),
(437,602,o),
(458,573,o),
(458,536,cs),
(458,498,o),
(437,461,o),
(405,411,cs),
(209,103,l),
(224,98,l),
(224,314,ls),
(224,472,o),
(148,560,o),
(66,560,cs),
(45,560,o),
(23,533,o),
(23,509,cs),
(23,490,o),
(32,482,o),
(51,474,cs),
(112,448,o),
(134,408,o),
(134,299,cs),
(134,83,ls),
(134,14,o),
(159,0,o),
(180,0,cs),
(201,0,o),
(216,8,o),
(236,40,cs),
(432,350,ls),
(478,423,o),
(492,445,o),
(502,445,cs),
(514,445,o),
(514,418,o),
(514,374,cs),
(514,84,ls),
(514,32,o),
(485,-5,o),
(426,-46,cs),
(372,-83,o),
(316,-125,o),
(316,-194,cs),
(316,-268,o),
(383,-336,o),
(504,-362,cs),
(509,-363,o),
(513,-363,o),
(518,-363,cs)
);
}
);
width = 917;
}
);
unicode = 71487;
},
{
glyphname = t_ja_ahom;
layers = (
{
anchors = (
{
name = Anchor10;
position = "{0, 0}";
},
{
name = Anchor11;
position = "{1060, 0}";
},
{
name = Anchor12;
position = "{0, 0}";
},
{
name = Anchor13;
position = "{650, 0}";
},
{
name = Anchor15;
position = "{856, 630}";
},
{
name = Anchor17;
position = "{990, 0}";
},
{
name = Anchor27;
position = "{1142, 490}";
},
{
name = Anchor8;
position = "{1080, 0}";
},
{
name = Anchor9;
position = "{0, 0}";
}
);
background = {
shapes = (
{
closed = 1;
nodes = (
(325,-14,o),
(382,80,o),
(409,180,c),
(423,66,ls),
(430,11,o),
(451,10,o),
(471,10,cs),
(484,10,o),
(505,20,o),
(514,54,cs),
(554,205,ls),
(576,289,o),
(599,374,o),
(611,374,cs),
(621,374,o),
(626,345,o),
(633,302,cs),
(653,183,ls),
(670,80,o),
(701,-14,o),
(812,-14,cs),
(937,-14,o),
(1062,143,o),
(1062,345,cs),
(1062,502,o),
(983,560,o),
(911,560,cs),
(875,560,o),
(851,536,o),
(851,503,cs),
(851,477,o),
(868,448,o),
(908,431,cs),
(944,416,o),
(983,397,o),
(983,324,cs),
(983,176,o),
(914,48,o),
(830,48,cs),
(783,48,o),
(767,80,o),
(750,177,cs),
(704,435,ls),
(684,545,o),
(659,560,o),
(629,560,cs),
(603,560,o),
(583,522,o),
(556,428,cs),
(478,160,l),
(485,150,l),
(479,313,ls),
(474,453,o),
(434,560,o),
(315,560,cs),
(200,560,o),
(60,364,o),
(60,169,cs),
(60,33,o),
(133,-14,o),
(213,-14,cs)
);
},
{
closed = 1;
nodes = (
(177,68,o),
(154,124,o),
(154,196,cs),
(154,382,o),
(240,483,o),
(309,483,cs),
(357,483,o),
(393,450,o),
(393,347,cs),
(393,317,l),
(356,106,o),
(275,68,o),
(234,68,cs)
);
}
);
};
layerId = "8FE481F4-9FBE-4592-9CC9-A6C081639EC4";
shapes = (
{
closed = 1;
nodes = (
(325,-14,o),
(382,80,o),
(409,180,c),
(423,66,ls),
(430,11,o),
(451,10,o),
(471,10,cs),
(484,10,o),
(505,20,o),
(514,54,cs),
(554,205,ls),
(576,289,o),
(599,374,o),
(611,374,cs),
(621,374,o),
(626,345,o),
(633,302,cs),
(653,183,ls),
(670,80,o),
(701,-14,o),
(812,-14,cs),
(937,-14,o),
(1062,143,o),
(1062,345,cs),
(1062,502,o),
(983,560,o),
(911,560,cs),
(875,560,o),
(851,536,o),
(851,503,cs),
(851,477,o),
(868,448,o),
(908,431,cs),
(944,416,o),
(983,397,o),
(983,324,cs),
(983,176,o),
(914,48,o),
(830,48,cs),
(783,48,o),
(767,80,o),
(750,177,cs),
(704,435,ls),
(684,545,o),
(659,560,o),
(629,560,cs),
(603,560,o),
(583,522,o),
(556,428,cs),
(478,160,l),
(485,150,l),
(479,313,ls),
(474,453,o),
(434,560,o),
(315,560,cs),
(200,560,o),
(60,364,o),
(60,169,cs),
(60,33,o),
(133,-14,o),
(213,-14,cs)
);
},
{
closed = 1;
nodes = (
(177,68,o),
(154,124,o),
(154,196,cs),
(154,382,o),
(240,483,o),
(309,483,cs),
(357,483,o),
(393,450,o),
(393,347,cs),
(393,317,l),
(356,106,o),
(275,68,o),
(234,68,cs)
);
}
);
width = 1142;
}
);
},
{
glyphname = i_u_ahom;
layers = (
{
background = {
shapes = (
{
closed = 1;
nodes = (
(277,-140,o),
(375,-114,o),
(375,-75,cs),
(375,-61,o),
(363,-52,o),
(350,-52,cs),
(341,-52,o),
(335,-54,o),
(321,-60,cs),
(295,-71,o),
(263,-78,o),
(219,-78,cs),
(157,-78,o),
(115,-51,o),
(115,60,cs),
(115,516,l),
(179,558,o),
(231,648,o),
(231,770,cs),
(231,880,o),
(186,968,o),
(98,968,cs),
(-27,968,o),
(-100,807,o),
(-100,701,cs),
(-100,561,o),
(-47,494,o),
(25,490,c),
(25,56,ls),
(25,-105,o),
(136,-140,o),
(228,-140,cs)
);
},
{
closed = 1;
nodes = (
(8,554,o),
(-18,607,o),
(-18,691,cs),
(-18,859,o),
(28,904,o),
(83,904,cs),
(137,904,o),
(149,839,o),
(149,772,cs),
(149,656,o),
(135,554,o),
(53,554,cs)
);
}
);
};
layerId = "8FE481F4-9FBE-4592-9CC9-A6C081639EC4";
shapes = (
{
closed = 1;
nodes = (
(277,-140,o),
(375,-114,o),
(375,-75,cs),
(375,-61,o),
(363,-52,o),
(350,-52,cs),
(341,-52,o),
(335,-54,o),
(321,-60,cs),
(295,-71,o),
(263,-78,o),
(219,-78,cs),
(157,-78,o),
(115,-51,o),
(115,60,cs),
(115,516,l),
(179,558,o),
(231,648,o),
(231,770,cs),
(231,880,o),
(186,968,o),
(98,968,cs),
(-27,968,o),
(-100,807,o),
(-100,701,cs),
(-100,561,o),
(-47,494,o),
(25,490,c),
(25,56,ls),
(25,-105,o),
(136,-140,o),
(228,-140,cs)
);
},
{
closed = 1;
nodes = (
(8,554,o),
(-18,607,o),
(-18,691,cs),
(-18,859,o),
(28,904,o),
(83,904,cs),
(137,904,o),
(149,839,o),
(149,772,cs),
(149,656,o),
(135,554,o),
(53,554,cs)
);
}
);
width = 275;
}
);
},
{
glyphname = o_u_ahom;
layers = (
{
anchors = (
{
name = _Anchor17;
position = "{-120, 0}";
},
{
name = _Anchor25;
position = "{-190, 20}";
}
);
background = {
shapes = (
{
closed = 1;
nodes = (
(6,-672,o),
(104,-646,o),
(104,-607,cs),
(104,-593,o),
(92,-584,o),
(75,-584,cs),
(70,-584,o),
(65,-585,o),
(61,-587,cs),
(24,-604,o),
(-8,-610,o),
(-52,-610,cs),
(-94,-610,o),
(-136,-593,o),
(-136,-482,cs),
(-136,-327,l),
(-86,-301,o),
(-50,-250,o),
(-50,-180,cs),
(-50,-99,o),
(-95,-44,o),
(-179,-44,cs),
(-275,-44,o),
(-334,-122,o),
(-334,-207,cs),
(-334,-299,o),
(-282,-339,o),
(-226,-344,c),
(-226,-486,ls),
(-226,-647,o),
(-135,-672,o),
(-43,-672,cs)
);
},
{
closed = 1;
nodes = (
(-244,-300,o),
(-259,-257,o),
(-259,-195,cs),
(-259,-113,o),
(-227,-89,o),
(-181,-89,cs),
(-136,-89,o),
(-125,-129,o),
(-125,-178,cs),
(-125,-240,o),
(-138,-300,o),
(-198,-300,cs)
);
}
);
};
layerId = "8FE481F4-9FBE-4592-9CC9-A6C081639EC4";
shapes = (
{
closed = 1;
nodes = (
(6,-672,o),
(104,-646,o),
(104,-607,cs),
(104,-593,o),
(92,-584,o),
(75,-584,cs),
(70,-584,o),
(65,-585,o),
(61,-587,cs),
(24,-604,o),
(-8,-610,o),
(-52,-610,cs),
(-94,-610,o),
(-136,-593,o),
(-136,-482,cs),
(-136,-327,l),
(-86,-301,o),
(-50,-250,o),
(-50,-180,cs),
(-50,-99,o),
(-95,-44,o),
(-179,-44,cs),
(-275,-44,o),
(-334,-122,o),
(-334,-207,cs),
(-334,-299,o),
(-282,-339,o),
(-226,-344,c),
(-226,-486,ls),
(-226,-647,o),
(-135,-672,o),
(-43,-672,cs)
);
},
{
closed = 1;
nodes = (
(-244,-300,o),
(-259,-257,o),
(-259,-195,cs),
(-259,-113,o),
(-227,-89,o),
(-181,-89,cs),
(-136,-89,o),
(-125,-129,o),
(-125,-178,cs),
(-125,-240,o),
(-138,-300,o),
(-198,-300,cs)
);
}
);
width = 0;
}
);
},
{
glyphname = khra_ahom;
layers = (
{
anchors = (
{
name = Anchor10;
position = "{0, 0}";
},
{
name = Anchor11;
position = "{900, 0}";
},
{
name = Anchor12;
position = "{0, 0}";
},
{
name = Anchor13;
position = "{400, 0}";
},
{
name = Anchor15;
position = "{611, 660}";
},
{
name = Anchor17;
position = "{675, 0}";
},
{
name = Anchor27;
position = "{854, 490}";
},
{
name = Anchor8;
position = "{1020, 0}";
},
{
name = Anchor9;
position = "{0, 0}";
}
);
background = {
shapes = (
{
closed = 1;
nodes = (
(204,-10,o),
(224,-2,o),
(224,15,cs),
(224,20,l),
(249,86,o),
(296,198,o),
(377,284,c),
(362,278,l),
(364,161,o),
(407,20,o),
(549,20,cs),
(649,20,o),
(729,104,o),
(729,242,cs),
(729,377,o),
(626,428,o),
(549,428,cs),
(518,428,o),
(490,423,o),
(463,413,c),
(486,506,o),
(544,534,o),
(608,534,cs),
(658,534,o),
(686,522,o),
(705,510,cs),
(715,504,o),
(724,499,o),
(733,499,cs),
(747,499,o),
(764,514,o),
(764,534,cs),
(764,560,o),
(699,600,o),
(608,600,cs),
(490,600,o),
(391,519,o),
(368,358,c),
(312,312,o),
(264,248,o),
(224,181,c),
(224,365,ls),
(224,516,o),
(139,560,o),
(73,560,cs),
(38,560,o),
(20,523,o),
(20,499,cs),
(20,487,o),
(25,477,o),
(36,477,cs),
(53,477,ls),
(104,477,o),
(134,446,o),
(134,362,cs),
(134,15,ls),
(134,-4,o),
(159,-10,o),
(180,-10,cs)
);
},
{
closed = 1;
nodes = (
(480,84,o),
(453,154,o),
(453,315,cs),
(453,332,l),
(476,344,o),
(501,351,o),
(526,351,cs),
(568,351,o),
(635,332,o),
(635,228,cs),
(635,129,o),
(590,84,o),
(550,84,cs)
);
}
);
};
layerId = "8FE481F4-9FBE-4592-9CC9-A6C081639EC4";
shapes = (
{
closed = 1;
nodes = (
(204,-10,o),
(224,-2,o),
(224,15,cs),
(224,20,l),
(249,86,o),
(296,198,o),
(377,284,c),
(362,278,l),
(364,161,o),
(407,20,o),
(549,20,cs),
(649,20,o),
(729,104,o),
(729,242,cs),
(729,377,o),
(626,428,o),
(549,428,cs),
(518,428,o),
(490,423,o),
(463,413,c),
(486,506,o),
(544,534,o),
(608,534,cs),
(658,534,o),
(686,522,o),
(705,510,cs),
(715,504,o),
(724,499,o),
(733,499,cs),
(747,499,o),
(764,514,o),
(764,534,cs),
(764,560,o),
(699,600,o),
(608,600,cs),
(490,600,o),
(391,519,o),
(368,358,c),
(312,312,o),
(264,248,o),
(224,181,c),
(224,365,ls),
(224,516,o),
(139,560,o),
(73,560,cs),
(38,560,o),
(20,523,o),
(20,499,cs),
(20,487,o),
(25,477,o),
(36,477,cs),
(53,477,ls),
(104,477,o),
(134,446,o),
(134,362,cs),
(134,15,ls),
(134,-4,o),
(159,-10,o),
(180,-10,cs)
);
},
{
closed = 1;
nodes = (
(480,84,o),
(453,154,o),
(453,315,cs),
(453,332,l),
(476,344,o),
(501,351,o),
(526,351,cs),
(568,351,o),
(635,332,o),
(635,228,cs),
(635,129,o),
(590,84,o),
(550,84,cs)
);
}
);
width = 844;
}
);
},
